<?xml version="1.0" encoding="utf-8"?>
<!-- Generator: Adobe Illustrator 16.0.0, SVG Export Plug-In . SVG Version: 6.00 Build 0)  -->
<!DOCTYPE svg PUBLIC "-//W3C//DTD SVG 1.1//EN" "http://www.w3.org/Graphics/SVG/1.1/DTD/svg11.dtd">
<svg version="1.1" id="Layer_1" xmlns="http://www.w3.org/2000/svg" xmlns:xlink="http://www.w3.org/1999/xlink" x="0px" y="0px"
	 width="48px" height="48px" viewBox="0 0 48 48" style="enable-background:new 0 0 48 48;" xml:space="preserve">
<g>
	<path style="fill:#0B0C0C;" d="M24,18h-2.039v4H24c2.888,0,3.961,1.084,3.961,4v4c0,2.916-1.073,4-3.961,4H10
		c-2.906,0-4.039-1.121-4.039-4v-4c0-2.878,1.133-4,4.039-4h3.961v-4H10c-5.109,0-8.039,2.916-8.039,8v4c0,5.084,2.93,8,8.039,8h14
		c5.06,0,7.961-2.916,7.961-8v-4C31.961,20.916,29.06,18,24,18z"/>
	<path style="fill:#0B0C0C;" d="M38,10H24c-5.109,0-8.039,2.916-8.039,8v4c0,5.084,2.93,8,8.039,8h1.961v-4H24
		c-2.906,0-4.039-1.122-4.039-4v-4c0-2.878,1.133-4,4.039-4h14c2.888,0,3.961,1.084,3.961,4v4c0,2.916-1.073,4-3.961,4h-4.039v4H38
		c5.06,0,7.961-2.916,7.961-8v-4C45.961,12.916,43.06,10,38,10z"/>
</g>
</svg>
