<?xml version="1.0" encoding="utf-8"?>
<!-- Generator: Adobe Illustrator 22.0.1, SVG Export Plug-In . SVG Version: 6.00 Build 0)  -->
<svg version="1.1" id="Layer_1" xmlns="http://www.w3.org/2000/svg" xmlns:xlink="http://www.w3.org/1999/xlink" x="0px" y="0px"
	 viewBox="0 0 960 640" style="enable-background:new 0 0 960 640;" xml:space="preserve">
<style type="text/css">
	.st0{fill:#0B0B0B;}
	.st1{fill:#DADADA;}
	.st2{fill:#FFFFFF;}
	.st3{fill:#C2F297;}
	.st4{fill:#009347;stroke:#FFFFFF;stroke-width:0.586;stroke-miterlimit:10;}
	.st5{fill:#D2D2D2;}
	.st6{fill:#FFFFFF;stroke:#A7A7A8;stroke-width:0.711;stroke-miterlimit:10;}
	.st7{fill:none;stroke:#A7A7A8;stroke-width:5;stroke-miterlimit:10;}
	.st8{fill:#00923A;}
	.st9{fill:none;stroke:#00923A;stroke-width:2.7;stroke-miterlimit:10;}
	.st10{fill:#181418;stroke:#E2E3E4;stroke-width:4.1709;stroke-miterlimit:10;}
	.st11{fill:#F2F2F2;}
	.st12{fill:none;stroke:#18131A;stroke-width:4.1709;stroke-miterlimit:10;}
	.st13{fill:#FFFFFF;stroke:#A7A7A8;stroke-width:0.4804;stroke-miterlimit:10;}
	.st14{fill:none;stroke:#00923A;stroke-width:1.8243;stroke-miterlimit:10;}
	.st15{opacity:0.15;fill:#FFFFFF;enable-background:new    ;}
	.st16{fill:url(#SVGID_1_);stroke:#18131A;stroke-width:4.1709;stroke-miterlimit:10;}
	.st17{fill:url(#SVGID_2_);}
	.st18{opacity:0.6;fill:none;stroke:url(#SVGID_3_);stroke-width:1.0427;stroke-miterlimit:10;enable-background:new    ;}
	.st19{fill:none;stroke:#FFFFFF;stroke-width:1.5641;stroke-miterlimit:10;}
	.st20{fill:#18131A;}
	.st21{fill:none;}
	.st22{enable-background:new    ;}
	.st23{fill:#005EA5;}
	.st24{fill:none;stroke:#009FE2;stroke-width:10;stroke-linecap:round;stroke-miterlimit:10;}
	.st25{fill:none;stroke:#009FE2;stroke-width:10;stroke-linecap:round;stroke-miterlimit:10;stroke-dasharray:0,19.6153;}
	.st26{fill:none;stroke:#009FE2;stroke-width:10;stroke-linecap:round;stroke-miterlimit:10;stroke-dasharray:0,20.4873;}
	.st27{fill:none;stroke:#009FE2;stroke-width:10;stroke-linecap:round;stroke-linejoin:round;stroke-miterlimit:10;}
</style>
<path class="st0" d="M1,40h861v461.5H1V40z"/>
<path class="st1" d="M0,40V10C0,4.5,4.5,0,10,0h843c5.5,0,10,4.5,10,10v30"/>
<circle class="st2" cx="25.4" cy="20" r="8.5"/>
<circle class="st2" cx="49.1" cy="20" r="8.5"/>
<circle class="st2" cx="72.9" cy="20" r="8.5"/>
<path class="st1" d="M0,36v467.5h863V36H0z M4,499.5V40h855v459.5H4z"/>
<g>
	<path class="st3" d="M47.3,66.6L47.3,66.6c0,0.4-0.3,0.4-0.3,0.9V69c2.4,0.3,4.6,1.3,6,3.1l-1.8,2.2c-0.1,0-0.3-0.1-0.3-0.3v-0.4
		c0,0,0-0.1-0.1-0.3c-0.9-1-2.2-1.8-3.8-2v8c0.9,0.3,1.9,0.6,2.7,1c0.9,0.3,4.1,1.7,4.1,5.3c0,2.9-2.2,6.1-6.7,6.7V95h-2.4v-2.5
		c-2.8-0.1-5.3-1.3-7.1-3.2l1.8-2.4c0.3,0.1,0.1,0.4,0.1,0.4c0,0.1,0,0.3,0.1,0.5c1.1,1.3,2.9,2.3,5.1,2.5v-8.9
		c-0.8-0.3-1.5-0.5-2.3-0.9c-3.4-1.7-4.1-3.9-4.1-5.3c0-2.9,2.5-5.5,6.4-5.9v-2.7H47.3L47.3,66.6z M44.6,71.4
		c-2.5,0.3-3.7,1.8-3.7,3.2c0,0.9,0.4,2.2,2.2,3.2c0.4,0.3,0.9,0.5,1.4,0.6L44.6,71.4L44.6,71.4L44.6,71.4z M47,90.1
		c2.7-0.5,4.1-2.3,4.1-4.2c0-0.9-0.3-2.2-2-3.2c-0.5-0.3-1.3-0.5-2-0.8L47,90.1L47,90.1z M92.3,80c-0.4-0.3-0.1-0.6-0.3-0.9
		c-0.1-0.3-1.7-2.4-4.8-2.4c-3.4,0-6.1,2.7-6.1,6.9c0,4.3,2.8,7.4,6.4,7.4c1.9,0,3.7-0.8,5-2.3l1.7,1.9c-1.8,1.9-4.2,2.9-6.9,2.9
		c-5.2,0-9.2-4.2-9.2-9.8S82,74,87.3,74c3.1,0,5.5,1.3,7,3.4L92.3,80L92.3,80z M115.8,68.4l-1.3,2.7c-0.1,0-0.3,0-0.4-0.4
		c0-0.1,0-0.3-0.1-0.5c-0.8-1.1-2.3-2.2-4.1-2.2c-1.5,0-2.9,0.6-3.7,2c-0.6,1.3-0.6,2.7-0.6,4.1v1.4h6.1v2.3h-6.1v15.1h-2.8v-15
		h-4.1v-2.3h4.1v-1.8c0-1.7,0.1-3.2,1-4.7c1.3-2.2,3.7-3.2,6.4-3.2C112.5,65.8,114.6,66.7,115.8,68.4L115.8,68.4z M142.3,74.5v2.8
		c1.3-2,3.4-3.3,5.9-3.3c3.7,0,7.5,2.9,7.5,9.5c0,6.9-3.9,10.1-7.8,10.1c-2.3,0-4.3-1.1-5.6-2.9v9.3h-2.9V74.6L142.3,74.5
		L142.3,74.5L142.3,74.5z M142.8,79.3c-0.4,1-0.5,2-0.5,3.7c0,2.7,0,4.2,0.5,5.5c0.8,1.7,2.5,2.5,4.2,2.5c1.8,0,5.6-0.9,5.6-6.7
		c0-6.7-3.9-7.6-5.6-7.6C145.2,76.7,143.5,77.7,142.8,79.3L142.8,79.3z M162.8,74.5v10.3c0,1.3,0,2.7,0.6,4.1c0.8,1.5,2,2.3,3.6,2.3
		c1.8,0,3.4-1.1,4.3-2.8c0.6-1.1,0.8-2.3,0.8-3.7V74.5h2.9v16.9c0,0.5,0,1.1,0.3,1.7h-3.2c-0.1-0.5-0.1-1-0.1-1.4v-1.4
		c-1.3,2-3.4,3.3-5.7,3.3c-2.4,0-4.7-1.4-5.7-3.8c-0.8-1.7-0.8-3.3-0.8-4.8V74.6h3.1L162.8,74.5L162.8,74.5z M193.5,79.6
		c-0.1,0-0.3-0.1-0.3-0.4c0-0.1,0-0.3-0.1-0.4c-0.8-0.9-2.5-2.5-5.2-2.5c-2.2,0-3.9,1-3.9,2.5c0,0.6,0.4,1.5,1.8,2.3
		c1.8,0.9,4.7,1.3,6.9,2.4c2.2,1.3,2.7,2.9,2.7,4.2c0,2.8-2.7,5.9-7.8,5.9c-2.8,0-5.7-0.9-7.9-2.9l1.7-2.9c0.3,0.1,0.1,0.4,0.1,0.4
		c0,0.1,0,0.3,0.1,0.4c0.6,0.6,2.7,2.5,5.9,2.5c2.7,0,4.8-1.1,4.8-2.9c0-0.6-0.4-1.7-1.9-2.4c-1.4-0.6-3.4-1.1-5-1.7
		c-1-0.4-4.6-1.5-4.6-4.8c0-2.8,2.8-5.2,7.1-5.2c2.8,0,5.2,1,7,2.9L193.5,79.6L193.5,79.6z M200.8,66.1h3.4v0.1
		c0,0.3-0.1,0.4-0.3,0.4c-0.1,0.1-0.1,0.3-0.1,0.4v10.8c1.4-2,3.7-3.7,6.2-3.7c2.2,0,4.1,1.1,5,3.3c0.6,1.5,0.6,3.1,0.6,4.5v11.3
		h-2.9V81.9c0-1.3,0-2.9-1-4.1c-0.6-0.8-1.5-1.1-2.5-1.1c-1.9,0-3.8,1.7-4.5,2.5c-0.8,1-0.9,1.9-0.9,3.2v10.7H201v-27H200.8
		L200.8,66.1z M240.2,74.5h2.7v1.8c0.9-1.3,2.3-2.3,3.8-2.3c1.7,0,3.1,1.1,3.3,2.7c0.8-1.7,2.4-2.7,4.2-2.7c1,0,2.2,0.4,2.9,1.5
		c0.8,1.3,0.8,2.8,0.8,4.3V93h-2.8V80c0-0.9,0.1-1.9-0.3-2.7c-0.3-0.6-0.9-1-1.5-1c-1.1,0-1.9,1.1-2.2,1.7c-0.6,1.1-0.8,1.9-0.8,2.9
		v12.3h-2.8v-13c0-0.8,0-1.7-0.1-2.4c-0.3-1-1-1.4-1.8-1.4s-1.5,0.5-2.3,1.8c-0.5,1-0.6,1.8-0.6,2.7v12.3H240V74.5H240.2L240.2,74.5
		z M264.6,74.5c0,0.4-0.1,0.5-0.1,0.9c0,0.1,0,0.3,0.1,0.4l5.5,13.7l3.6-9.9c0.5-1.7,1.1-3.3,1.4-5h3.1c-0.5,1.8-1.1,3.6-1.9,5.3
		l-5.9,15.4c-0.4,1-0.8,2-1.7,2.9c-1.3,1.4-2.9,2-4.7,2c-1.5,0-2.9-0.5-4.1-1.5l1.5-2.7c0.3,0.1,0.3,0.5,0.4,0.6
		c0.1,0.3,0.8,1.1,2.2,1.1c0.9,0,1.8-0.4,2.5-1.1c0.6-0.6,1-1.4,1.3-2.2l0.6-1.4l-7.5-18.6L264.6,74.5L264.6,74.5L264.6,74.5z
		 M296.9,78.9v2.7h-14.6v-2.7H296.9L296.9,78.9z M310,74.1c2.9,0,5.2,1,6.5,3.1c0.9,1.4,0.9,2.9,0.9,4.5v11.6h-2.8v-2
		c-2,1.7-4.5,2.5-6.6,2.5c-3.9,0-6.2-2.5-6.2-5.2c0-2,1.3-4.2,4.3-5.3c2.4-0.9,5.3-0.9,8-0.9h0.6v-0.6c0-1,0-2.2-0.6-3.2
		c-0.5-0.9-1.7-1.8-3.8-1.8c-1.8,0-3.8,0.5-5.3,2l-1.4-1.9C305.2,74.9,307.6,74.1,310,74.1L310,74.1z M314.1,84.4
		c-1.9,0-4.5-0.1-6.1,0.3c-2.3,0.5-3.3,2-3.3,3.4c0,1.7,1.4,3.2,3.9,3.2c2.4,0,4.2-1.5,4.8-2.2c1.3-1.3,1.3-2.5,1.3-3.6v-1.3h-0.6
		L314.1,84.4L314.1,84.4z M325.5,74.5v2.8c1.3-2,3.4-3.3,5.9-3.3c3.7,0,7.5,2.9,7.5,9.5c0,6.9-3.9,10.1-7.8,10.1
		c-2.3,0-4.3-1.1-5.6-2.9v9.3h-2.9V74.6L325.5,74.5L325.5,74.5L325.5,74.5z M326.1,79.3c-0.4,1-0.5,2-0.5,3.7c0,2.7,0,4.2,0.5,5.5
		c0.8,1.7,2.5,2.5,4.2,2.5c1.8,0,5.6-0.9,5.6-6.7c0-6.7-3.9-7.6-5.6-7.6C328.5,76.7,326.7,77.7,326.1,79.3L326.1,79.3z M345.9,74.5
		v2.8c1.3-2,3.4-3.3,5.9-3.3c3.7,0,7.5,2.9,7.5,9.5c0,6.9-3.9,10.1-7.8,10.1c-2.3,0-4.3-1.1-5.6-2.9v9.3H343V74.6L345.9,74.5
		L345.9,74.5L345.9,74.5z M346.4,79.3c-0.4,1-0.5,2-0.5,3.7c0,2.7,0,4.2,0.5,5.5c0.8,1.7,2.5,2.5,4.2,2.5c1.8,0,5.6-0.9,5.6-6.7
		c0-6.7-3.9-7.6-5.6-7.6C348.8,76.7,347,77.7,346.4,79.3L346.4,79.3z"/>
</g>
<path class="st0" d="M981,40h861v461.5H981V40z"/>
<path class="st1" d="M980,40V10c0-5.5,4.5-10,10-10h843c5.5,0,10,4.5,10,10v30"/>
<circle class="st2" cx="1005.4" cy="20" r="8.5"/>
<circle class="st2" cx="1029.1" cy="20" r="8.5"/>
<circle class="st2" cx="1052.9" cy="20" r="8.5"/>
<path class="st1" d="M980,36v467.5h863V36H980z M984,499.5V40h855v459.5H984z"/>
<path class="st2" d="M1079,228.4h861V636h-861V228.4z"/>
<path class="st4" d="M1163.4,561.5h258.1v40h-258.1V561.5z"/>
<path class="st5" d="M1164.6,346.4h402.2v20h-402.2L1164.6,346.4L1164.6,346.4z M1164.6,386.4h402.2v20h-402.2L1164.6,386.4
	L1164.6,386.4z M1164.6,426.4h402.2v20h-402.2L1164.6,426.4L1164.6,426.4z M1164.6,466.4h402.2v20h-402.2L1164.6,466.4L1164.6,466.4
	z M1164.6,506.4h285.5v20h-285.5V506.4z"/>
<g>
	<path class="st3" d="M1027.3,66.6L1027.3,66.6c0,0.4-0.3,0.4-0.3,0.9V69c2.4,0.3,4.6,1.3,6,3.1l-1.8,2.2c-0.1,0-0.3-0.1-0.3-0.3
		v-0.4c0,0,0-0.1-0.1-0.3c-0.9-1-2.2-1.8-3.8-2v8c0.9,0.3,1.9,0.6,2.7,1c0.9,0.3,4.1,1.7,4.1,5.3c0,2.9-2.2,6.1-6.7,6.7V95h-2.4
		v-2.5c-2.8-0.1-5.3-1.3-7.1-3.2l1.8-2.4c0.3,0.1,0.1,0.4,0.1,0.4c0,0.1,0,0.3,0.1,0.5c1.1,1.3,2.9,2.3,5.1,2.5v-8.9
		c-0.8-0.3-1.5-0.5-2.3-0.9c-3.4-1.7-4.1-3.9-4.1-5.3c0-2.9,2.5-5.5,6.4-5.9v-2.7H1027.3L1027.3,66.6z M1024.6,71.4
		c-2.5,0.3-3.7,1.8-3.7,3.2c0,0.9,0.4,2.2,2.2,3.2c0.4,0.3,0.9,0.5,1.4,0.6L1024.6,71.4L1024.6,71.4L1024.6,71.4z M1027,90.1
		c2.7-0.5,4.1-2.3,4.1-4.2c0-0.9-0.3-2.2-2-3.2c-0.5-0.3-1.3-0.5-2-0.8L1027,90.1L1027,90.1z M1072.3,80c-0.4-0.3-0.1-0.6-0.3-0.9
		c-0.1-0.3-1.7-2.4-4.8-2.4c-3.4,0-6.1,2.7-6.1,6.9c0,4.3,2.8,7.4,6.4,7.4c1.9,0,3.7-0.8,5-2.3l1.7,1.9c-1.8,1.9-4.2,2.9-6.9,2.9
		c-5.2,0-9.2-4.2-9.2-9.8s3.9-9.7,9.3-9.7c3.1,0,5.5,1.3,7,3.4L1072.3,80L1072.3,80z M1095.8,68.4l-1.3,2.7c-0.1,0-0.3,0-0.4-0.4
		c0-0.1,0-0.3-0.1-0.5c-0.8-1.1-2.3-2.2-4.1-2.2c-1.5,0-2.9,0.6-3.7,2c-0.6,1.3-0.6,2.7-0.6,4.1v1.4h6.1v2.3h-6.1v15.1h-2.8v-15
		h-4.1v-2.3h4.1v-1.8c0-1.7,0.1-3.2,1-4.7c1.3-2.2,3.7-3.2,6.4-3.2C1092.5,65.8,1094.6,66.7,1095.8,68.4L1095.8,68.4z M1122.3,74.5
		v2.8c1.3-2,3.4-3.3,5.9-3.3c3.7,0,7.5,2.9,7.5,9.5c0,6.9-3.9,10.1-7.8,10.1c-2.3,0-4.3-1.1-5.6-2.9v9.3h-2.9V74.6L1122.3,74.5
		L1122.3,74.5L1122.3,74.5z M1122.8,79.3c-0.4,1-0.5,2-0.5,3.7c0,2.7,0,4.2,0.5,5.5c0.8,1.7,2.5,2.5,4.2,2.5c1.8,0,5.6-0.9,5.6-6.7
		c0-6.7-3.9-7.6-5.6-7.6C1125.2,76.7,1123.5,77.7,1122.8,79.3L1122.8,79.3z M1142.8,74.5v10.3c0,1.3,0,2.7,0.6,4.1
		c0.8,1.5,2,2.3,3.6,2.3c1.8,0,3.4-1.1,4.3-2.8c0.6-1.1,0.8-2.3,0.8-3.7V74.5h2.9v16.9c0,0.5,0,1.1,0.3,1.7h-3.2
		c-0.1-0.5-0.1-1-0.1-1.4v-1.4c-1.3,2-3.4,3.3-5.7,3.3c-2.4,0-4.7-1.4-5.7-3.8c-0.8-1.7-0.8-3.3-0.8-4.8V74.6h3.1L1142.8,74.5
		L1142.8,74.5z M1173.5,79.6c-0.1,0-0.3-0.1-0.3-0.4c0-0.1,0-0.3-0.1-0.4c-0.8-0.9-2.5-2.5-5.2-2.5c-2.2,0-3.9,1-3.9,2.5
		c0,0.6,0.4,1.5,1.8,2.3c1.8,0.9,4.7,1.3,6.9,2.4c2.2,1.3,2.7,2.9,2.7,4.2c0,2.8-2.7,5.9-7.8,5.9c-2.8,0-5.7-0.9-7.9-2.9l1.7-2.9
		c0.3,0.1,0.1,0.4,0.1,0.4c0,0.1,0,0.3,0.1,0.4c0.6,0.6,2.7,2.5,5.9,2.5c2.7,0,4.8-1.1,4.8-2.9c0-0.6-0.4-1.7-1.9-2.4
		c-1.4-0.6-3.4-1.1-5-1.7c-1-0.4-4.6-1.5-4.6-4.8c0-2.8,2.8-5.2,7.1-5.2c2.8,0,5.2,1,7,2.9L1173.5,79.6L1173.5,79.6z M1180.8,66.1
		h3.4v0.1c0,0.3-0.1,0.4-0.3,0.4c-0.1,0.1-0.1,0.3-0.1,0.4v10.8c1.4-2,3.7-3.7,6.2-3.7c2.2,0,4.1,1.1,5,3.3c0.6,1.5,0.6,3.1,0.6,4.5
		v11.3h-2.9V81.9c0-1.3,0-2.9-1-4.1c-0.6-0.8-1.5-1.1-2.5-1.1c-1.9,0-3.8,1.7-4.5,2.5c-0.8,1-0.9,1.9-0.9,3.2v10.7h-2.9L1180.8,66.1
		L1180.8,66.1L1180.8,66.1z M1220.2,74.5h2.7v1.8c0.9-1.3,2.3-2.3,3.8-2.3c1.7,0,3.1,1.1,3.3,2.7c0.8-1.7,2.4-2.7,4.2-2.7
		c1,0,2.2,0.4,2.9,1.5c0.8,1.3,0.8,2.8,0.8,4.3V93h-2.8V80c0-0.9,0.1-1.9-0.3-2.7c-0.3-0.6-0.9-1-1.5-1c-1.1,0-1.9,1.1-2.2,1.7
		c-0.6,1.1-0.8,1.9-0.8,2.9v12.3h-2.8v-13c0-0.8,0-1.7-0.1-2.4c-0.3-1-1-1.4-1.8-1.4s-1.5,0.5-2.3,1.8c-0.5,1-0.6,1.8-0.6,2.7v12.3
		h-2.7V74.5H1220.2L1220.2,74.5z M1244.6,74.5c0,0.4-0.1,0.5-0.1,0.9c0,0.1,0,0.3,0.1,0.4l5.5,13.7l3.6-9.9c0.5-1.7,1.1-3.3,1.4-5
		h3.1c-0.5,1.8-1.1,3.6-1.9,5.3l-5.9,15.4c-0.4,1-0.8,2-1.7,2.9c-1.3,1.4-2.9,2-4.7,2c-1.5,0-2.9-0.5-4.1-1.5l1.5-2.7
		c0.3,0.1,0.3,0.5,0.4,0.6c0.1,0.3,0.8,1.1,2.2,1.1c0.9,0,1.8-0.4,2.5-1.1c0.6-0.6,1-1.4,1.3-2.2l0.6-1.4l-7.5-18.6L1244.6,74.5
		L1244.6,74.5L1244.6,74.5z M1276.9,78.9v2.7h-14.6v-2.7H1276.9L1276.9,78.9z M1290,74.1c2.9,0,5.2,1,6.5,3.1
		c0.9,1.4,0.9,2.9,0.9,4.5v11.6h-2.8v-2c-2,1.7-4.5,2.5-6.6,2.5c-3.9,0-6.2-2.5-6.2-5.2c0-2,1.3-4.2,4.3-5.3c2.4-0.9,5.3-0.9,8-0.9
		h0.6v-0.6c0-1,0-2.2-0.6-3.2c-0.5-0.9-1.7-1.8-3.8-1.8c-1.8,0-3.8,0.5-5.3,2l-1.4-1.9C1285.2,74.9,1287.6,74.1,1290,74.1L1290,74.1
		z M1294.1,84.4c-1.9,0-4.5-0.1-6.1,0.3c-2.3,0.5-3.3,2-3.3,3.4c0,1.7,1.4,3.2,3.9,3.2c2.4,0,4.2-1.5,4.8-2.2
		c1.3-1.3,1.3-2.5,1.3-3.6v-1.3h-0.6L1294.1,84.4L1294.1,84.4z M1305.5,74.5v2.8c1.3-2,3.4-3.3,5.9-3.3c3.7,0,7.5,2.9,7.5,9.5
		c0,6.9-3.9,10.1-7.8,10.1c-2.3,0-4.3-1.1-5.6-2.9v9.3h-2.9V74.6L1305.5,74.5L1305.5,74.5L1305.5,74.5z M1306.1,79.3
		c-0.4,1-0.5,2-0.5,3.7c0,2.7,0,4.2,0.5,5.5c0.8,1.7,2.5,2.5,4.2,2.5c1.8,0,5.6-0.9,5.6-6.7c0-6.7-3.9-7.6-5.6-7.6
		C1308.5,76.7,1306.7,77.7,1306.1,79.3L1306.1,79.3z M1325.9,74.5v2.8c1.3-2,3.4-3.3,5.9-3.3c3.7,0,7.5,2.9,7.5,9.5
		c0,6.9-3.9,10.1-7.8,10.1c-2.3,0-4.3-1.1-5.6-2.9v9.3h-2.9V74.6L1325.9,74.5L1325.9,74.5L1325.9,74.5z M1326.4,79.3
		c-0.4,1-0.5,2-0.5,3.7c0,2.7,0,4.2,0.5,5.5c0.8,1.7,2.5,2.5,4.2,2.5c1.8,0,5.6-0.9,5.6-6.7c0-6.7-3.9-7.6-5.6-7.6
		C1328.8,76.7,1327,77.7,1326.4,79.3L1326.4,79.3z"/>
</g>
<path class="st1" d="M1078,178.1v-30c0-5.5,4.5-10,10-10h842c5.5,0,10,4.5,10,10v30"/>
<circle class="st2" cx="1103.4" cy="158.1" r="8.5"/>
<circle class="st2" cx="1127.1" cy="158.1" r="8.5"/>
<circle class="st2" cx="1150.9" cy="158.1" r="8.5"/>
<path class="st0" d="M1079,241.4h860v65h-860V241.4z"/>
<g>
	<path class="st2" d="M1172.1,267.3c1.4,0.6,2.9-0.1,3.4-1.4c0.6-1.3-0.1-2.9-1.4-3.4s-2.9,0.1-3.4,1.4
		C1170.2,265.2,1170.8,266.7,1172.1,267.3 M1166.2,270.8c1.4,0.6,2.9-0.1,3.4-1.4c0.6-1.3-0.1-2.9-1.4-3.4s-2.9,0.1-3.4,1.4
		C1164.2,268.7,1164.8,270.2,1166.2,270.8 M1164.4,277.4c1.4,0.6,2.9-0.1,3.4-1.4c0.6-1.3-0.1-2.9-1.4-3.4s-2.9,0.1-3.4,1.4
		C1162.4,275.3,1163.1,276.9,1164.4,277.4 M1178.8,269.4c1.4,0.6,2.9-0.1,3.4-1.4c0.6-1.3-0.1-2.9-1.4-3.4s-2.9,0.1-3.4,1.4
		C1176.8,267.3,1177.4,268.8,1178.8,269.4 M1202.9,267.3c-1.4,0.6-2.9-0.1-3.4-1.4c-0.6-1.3,0.1-2.9,1.4-3.4s2.9,0.1,3.4,1.4
		C1204.8,265.2,1204.2,266.7,1202.9,267.3 M1208.8,270.8c-1.4,0.6-2.9-0.1-3.4-1.4c-0.6-1.3,0.1-2.9,1.4-3.4s2.9,0.1,3.4,1.4
		C1210.8,268.7,1210.2,270.2,1208.8,270.8 M1210.6,277.4c-1.4,0.6-2.9-0.1-3.4-1.4c-0.6-1.3,0.1-2.9,1.4-3.4s2.9,0.1,3.4,1.4
		S1211.9,276.9,1210.6,277.4 M1196.2,269.4c-1.4,0.6-2.9-0.1-3.4-1.4c-0.6-1.3,0.1-2.9,1.4-3.4s2.9,0.1,3.4,1.4
		C1198.2,267.3,1197.6,268.8,1196.2,269.4 M1188.9,262.6L1188.9,262.6l3.3,1.7v-4.9l-3.3,1.1l0,0c-0.1-0.1-0.2-0.2-0.3-0.3l0,0
		l1.3-4.2h-4.8l1.3,4.2l0,0c-0.1,0.1-0.2,0.2-0.3,0.3l0,0l-3.3-1.1v4.9l3.3-1.7l0,0c0.1,0.1,0.2,0.2,0.3,0.3l-1.9,5.8l0,0l0,0
		c-0.1,0.3-0.1,0.6-0.1,0.9c0,1.6,1.2,2.9,2.7,3.1h0.1c0.1,0,0.3,0,0.4,0s0.3,0,0.4,0h0.1c1.5-0.2,2.7-1.5,2.7-3.1
		c0-0.3-0.1-0.6-0.1-0.9l0,0l0,0l-1.9-5.8C1188.7,262.8,1188.8,262.7,1188.9,262.6 M1187.5,290.8c6.3,0,12.3,0.4,17.6,1.2
		c1.5-6.4,3.4-10,5.3-12.6l-3.6-1.3c0.4,1.8,0.4,2.7,0,3.8c-0.6-0.6-1.2-1.6-1.6-3.3l-1.7,5.8c1.1-0.7,1.9-1.2,2.8-1.2
		c-1.7,3.6-3.7,4.5-5.1,4.2c-1.6-0.3-2.4-1.8-2.1-3c0.4-1.8,2.2-2.2,3-0.2c1.6-3.3-1.1-4.3-2.9-3.3c2.7-2.7,3-5.1,0.8-8
		c-3,2.3-3.1,4.6-1.7,7.8c-1.8-2-4.5-0.9-3.5,2.3c1.3-2,3-0.7,2.7,1.1c-0.2,1.6-2.4,3-5.1,2.7c-3.8-0.4-4.1-3-4.2-5.2
		c0.9-0.2,2.6,0.7,4.1,2.7l0.5-6.1c-1.6,1.6-3,2-4.6,2c0.5-1.7,3-4.4,3-4.4h-7.6c0,0,2.4,2.7,3,4.4c-1.6-0.1-3-0.4-4.6-2l0.5,6.1
		c1.5-2,3.2-2.9,4.1-2.7c-0.1,2.2-0.3,4.8-4.2,5.2c-2.7,0.2-4.8-1.1-5.1-2.7c-0.3-1.9,1.4-3.1,2.7-1.1c1-3.3-1.8-4.4-3.5-2.3
		c1.4-3.2,1.3-5.5-1.7-7.8c-2.2,2.9-1.9,5.3,0.8,7.9c-1.8-1-4.5,0-2.9,3.3c0.8-2,2.6-1.6,3,0.2c0.3,1.2-0.5,2.7-2.1,3
		c-1.3,0.2-3.4-0.7-5-4.2c0.9,0,1.7,0.5,2.8,1.2l-1.7-5.8c-0.4,1.6-1,2.7-1.6,3.3c-0.4-1.2-0.3-2,0-3.8l-3.6,1.3
		c1.9,2.6,3.7,6.2,5.3,12.6C1175.2,291.2,1181.2,290.8,1187.5,290.8"/>
</g>
<path class="st1" d="M1082,640V241.4h854V640h4V174.1h-862V640"/>
<path class="st6" d="M1163.4,177.7h758.9v58h-758.9V177.7z"/>
<path d="M1218.2,192.6h3.3v10.3c1.4-1.8,3.4-2.7,5.8-2.7c4.4,0,6.7,3.2,6.7,6.8v13.6h-3.3v-12.5c0-3.5-1.8-4.8-4.1-4.8
	c-2.5,0-5.1,1.8-5.1,5.5v11.8h-3.3V192.6L1218.2,192.6z M1245.4,215.6c0,1.3,0.2,2.4,2.6,2.4c0.6,0,1.9-0.1,2.5-0.2l0.4,2.9
	c0,0-1.9,0.3-3.6,0.3c-3.2,0-5.1-1.2-5.1-4.6v-12.8h-3.8v-2.9h3.8v-6.5l3.3-1.2v7.7h5.6v2.9h-5.6v12H1245.4z M1260.6,215.6
	c0,1.3,0.2,2.4,2.6,2.4c0.6,0,1.9-0.1,2.5-0.2l0.4,2.9c0,0-1.9,0.3-3.6,0.3c-3.2,0-5.1-1.2-5.1-4.6v-12.8h-3.8v-2.9h3.8v-6.5
	l3.3-1.2v7.7h5.6v2.9h-5.6v12H1260.6z M1273.9,200.6v2.3c1.2-1.6,3.3-2.7,5.8-2.7c5.2,0,8.5,4.4,8.5,10.4s-3.3,10.4-8.5,10.4
	c-2.6,0-4.7-1-5.8-2.7v8.4h-3.3v-26L1273.9,200.6L1273.9,200.6z M1284.8,210.5c0-4.2-2-7.4-5.7-7.4c-3.5,0-5.3,2.5-5.3,5.8v3.2
	c0,3.3,1.8,5.8,5.3,5.8C1282.8,217.9,1284.8,214.7,1284.8,210.5L1284.8,210.5z M1291.7,218.1l2-2.3c1.3,1.1,3.4,2.4,6,2.4
	c2.3,0,4-1,4-3c0-2.2-2.2-2.6-4.9-3.4c-2.8-0.8-6.2-1.7-6.2-5.8c0-3.4,3.1-5.8,7.3-5.8c2.6,0,5.6,1.1,6.9,2.5l-1.9,2.2
	c-1.2-1.1-2.9-1.9-4.9-1.9c-2.6,0-4,1.2-4,3c0,1.4,1.1,2.2,2.9,2.6c1,0.3,2.2,0.6,3.3,1c2.7,0.8,4.9,2.2,4.9,5.4c0,4.1-3.6,6-7.5,6
	C1296.9,221,1293.9,220.1,1291.7,218.1L1291.7,218.1z M1314.5,200.6c1.5,0,2.7,1.2,2.7,2.7s-1.2,2.7-2.7,2.7s-2.7-1.2-2.7-2.7
	S1313,200.6,1314.5,200.6z M1314.5,215.6c1.5,0,2.7,1.2,2.7,2.7s-1.2,2.7-2.7,2.7s-2.7-1.2-2.7-2.7S1313,215.6,1314.5,215.6z
	 M1331.3,192.6h3.4l-9.8,28h-3.4L1331.3,192.6L1331.3,192.6z M1343.3,192.6h3.4l-9.8,28h-3.4L1343.3,192.6L1343.3,192.6z
	 M1365.9,220.6h-3.3V208c0-3.6-1.8-4.8-4-4.8s-4.4,1.7-4.4,5.6v11.8h-3.3v-20h3.3v2.3c1.3-1.8,3.1-2.7,5.2-2.7
	c1.8,0,4.4,0.9,5.4,3.3c1.5-2.4,3.8-3.3,6.1-3.3c4.3,0,6.7,3.2,6.7,6.7v13.7h-3.3V208c0-3.6-1.9-4.8-4.1-4.8s-4.4,1.7-4.4,5.6
	L1365.9,220.6L1365.9,220.6z M1381.6,200.6h3.7l4.9,16.5l4.7-16.5h3.7l-7.3,23c-0.9,2.8-2.8,3.5-5.3,3.5c-1.1,0-2.3-0.1-3.6-0.3
	l0.5-2.9c0,0,1.4,0.3,2.6,0.3c1.4,0,2.2-0.6,2.5-2l0.2-0.9L1381.6,200.6L1381.6,200.6z M1402.6,207.4h8.4v3.1h-8.4V207.4
	L1402.6,207.4z M1422.6,221c-4,0-7-2.3-7-6c0-3.1,2.1-5.2,5.3-5.6l7-1v-1.3c0-3-2-4-4.4-4c-2.2,0-4.2,0.7-5.8,1.6l-1.2-2.6
	c2.3-1.3,4.9-1.8,7.3-1.8c4.8,0,7.4,2.2,7.4,6.4v9.3c0,1.3,0.5,2.2,1.6,2.7l-1.8,2.4c-1.3-0.3-2.2-1.3-2.7-2.4
	C1427.3,219.9,1425.3,221,1422.6,221L1422.6,221z M1422.7,211.7c-2.2,0.3-3.6,1-3.6,3.1c0,2.3,1.9,3.6,4.1,3.6
	c2.4,0,4.9-1.6,4.9-3.9v-3.6L1422.7,211.7L1422.7,211.7z M1440.9,200.6v2.3c1.2-1.6,3.3-2.7,5.8-2.7c5.2,0,8.5,4.4,8.5,10.4
	s-3.3,10.4-8.5,10.4c-2.6,0-4.7-1-5.8-2.7v8.4h-3.3v-26L1440.9,200.6L1440.9,200.6z M1451.9,210.5c0-4.2-2-7.4-5.7-7.4
	c-3.5,0-5.3,2.5-5.3,5.8v3.2c0,3.3,1.8,5.8,5.3,5.8C1449.9,217.9,1451.9,214.7,1451.9,210.5L1451.9,210.5z M1463.8,200.6v2.3
	c1.2-1.6,3.3-2.7,5.8-2.7c5.2,0,8.5,4.4,8.5,10.4s-3.3,10.4-8.5,10.4c-2.6,0-4.7-1-5.8-2.7v8.4h-3.3v-26L1463.8,200.6L1463.8,200.6z
	 M1474.7,210.5c0-4.2-2-7.4-5.7-7.4c-3.5,0-5.3,2.5-5.3,5.8v3.2c0,3.3,1.8,5.8,5.3,5.8C1472.7,217.9,1474.7,214.7,1474.7,210.5
	L1474.7,210.5z M1485.6,215.6c1.5,0,2.7,1.2,2.7,2.7s-1.2,2.7-2.7,2.7s-2.7-1.2-2.7-2.7S1484.1,215.6,1485.6,215.6L1485.6,215.6z
	 M1496.4,210.7c0,4,2,7.4,5.8,7.4c2.5,0,4.2-1.5,5.2-3.4l2.7,1.6c-1.4,2.8-4.3,4.7-7.9,4.7c-5.5,0-9.2-4.3-9.2-10.4
	c0-6.1,3.7-10.4,9.2-10.4c3.6,0,6.5,1.8,7.9,4.7l-2.7,1.6c-1-1.9-2.6-3.4-5.2-3.4c-3.8,0-5.8,3.4-5.8,7.4V210.7L1496.4,210.7z
	 M1514.9,192.6h3.3v23.5c0,1.3,0.4,2,1.9,2c0.8,0,1.5-0.1,2-0.1l0.3,2.8c0,0-1.9,0.2-3.3,0.2c-2.4,0-4.2-1-4.2-3.9L1514.9,192.6
	L1514.9,192.6z M1543.2,210.6c0,6-3.7,10.4-9.2,10.4s-9.2-4.4-9.2-10.4c0-6.1,3.7-10.4,9.2-10.4
	C1539.5,200.2,1543.2,204.5,1543.2,210.6z M1539.8,210.7v-0.2c0-4-2-7.4-5.8-7.4s-5.8,3.4-5.8,7.4v0.2c0,3.9,2,7.4,5.8,7.4
	C1537.8,218.1,1539.8,214.7,1539.8,210.7z M1564.1,220.6h-3.3v-2.3c-1.4,1.8-3.4,2.7-5.8,2.7c-4.4,0-6.7-3.2-6.7-6.8v-13.6h3.3v12.5
	c0,3.5,1.8,4.8,4.1,4.8c2.7,0,5.1-1.8,5.1-5.5v-11.8h3.3V220.6L1564.1,220.6z M1583.6,218.3c-1.2,1.6-3.3,2.7-5.8,2.7
	c-5.2,0-8.5-4.3-8.5-10.4s3.3-10.4,8.5-10.4c2.6,0,4.7,1,5.8,2.7v-10.3h3.3v28h-3.3V218.3L1583.6,218.3z M1572.7,210.7
	c0,4.2,2,7.4,5.7,7.4c3.5,0,5.3-2.5,5.3-5.8V209c0-3.3-1.8-5.8-5.3-5.8c-3.7,0-5.7,3.2-5.7,7.4V210.7L1572.7,210.7z M1598.8,221
	c-4,0-7-2.3-7-6c0-3.1,2.1-5.2,5.3-5.6l7-1v-1.3c0-3-2-4-4.4-4c-2.2,0-4.2,0.7-5.8,1.6l-1.2-2.6c2.3-1.3,4.9-1.8,7.3-1.8
	c4.8,0,7.4,2.2,7.4,6.4v9.3c0,1.3,0.5,2.2,1.6,2.7l-1.8,2.4c-1.3-0.3-2.2-1.3-2.7-2.4C1603.4,219.9,1601.5,221,1598.8,221
	L1598.8,221z M1598.8,211.7c-2.2,0.3-3.6,1-3.6,3.1c0,2.3,1.9,3.6,4.1,3.6c2.4,0,4.9-1.6,4.9-3.9v-3.6L1598.8,211.7z M1617.1,200.6
	v2.3c1.2-1.6,3.3-2.7,5.8-2.7c5.2,0,8.5,4.4,8.5,10.4s-3.3,10.4-8.5,10.4c-2.6,0-4.7-1-5.8-2.7v8.4h-3.3v-26L1617.1,200.6
	L1617.1,200.6z M1628,210.5c0-4.2-2-7.4-5.7-7.4c-3.5,0-5.3,2.5-5.3,5.8v3.2c0,3.3,1.8,5.8,5.3,5.8
	C1626,217.9,1628,214.7,1628,210.5L1628,210.5z M1639.9,200.6v2.3c1.2-1.6,3.3-2.7,5.8-2.7c5.2,0,8.5,4.4,8.5,10.4
	s-3.3,10.4-8.5,10.4c-2.6,0-4.7-1-5.8-2.7v8.4h-3.3v-26L1639.9,200.6L1639.9,200.6z M1650.9,210.5c0-4.2-2-7.4-5.7-7.4
	c-3.5,0-5.3,2.5-5.3,5.8v3.2c0,3.3,1.8,5.8,5.3,5.8C1648.9,217.9,1650.9,214.7,1650.9,210.5L1650.9,210.5z M1657.8,218.1l2-2.3
	c1.3,1.1,3.4,2.4,6,2.4c2.3,0,4-1,4-3c0-2.2-2.2-2.6-4.9-3.4c-2.8-0.8-6.2-1.7-6.2-5.8c0-3.4,3.1-5.8,7.3-5.8c2.6,0,5.6,1.1,6.9,2.5
	l-1.9,2.2c-1.2-1.1-2.9-1.9-4.9-1.9c-2.6,0-4,1.2-4,3c0,1.4,1.1,2.2,2.9,2.6c1,0.3,2.2,0.6,3.3,1c2.7,0.8,4.9,2.2,4.9,5.4
	c0,4.1-3.6,6-7.5,6C1662.9,221,1660,220.1,1657.8,218.1L1657.8,218.1z M1680.5,215.6c1.5,0,2.7,1.2,2.7,2.7s-1.2,2.7-2.7,2.7
	s-2.7-1.2-2.7-2.7S1679.1,215.6,1680.5,215.6z M1702.3,218.3c-1.2,1.6-3.3,2.7-5.8,2.7c-5.2,0-8.5-4.3-8.5-10.4s3.3-10.4,8.5-10.4
	c2.6,0,4.7,1,5.8,2.7v-10.3h3.3v28h-3.3V218.3L1702.3,218.3z M1691.4,210.7c0,4.2,2,7.4,5.7,7.4c3.5,0,5.3-2.5,5.3-5.8V209
	c0-3.3-1.8-5.8-5.3-5.8c-3.7,0-5.7,3.2-5.7,7.4V210.7z M1713.7,192.6c1.3,0,2.4,1.1,2.4,2.4c0,1.4-1.1,2.4-2.4,2.4
	c-1.4,0-2.4-1.1-2.4-2.4C1711.3,193.7,1712.3,192.6,1713.7,192.6z M1715.3,220.6h-3.3v-20h3.3V220.6L1715.3,220.6z M1728.7,200.2
	c2.2,0,4.3,0.8,5.6,2.7v-2.3h3.3v20.1c0,5-4.4,6.4-8.6,6.4c-2.4,0-5.2-0.5-7.4-1.6l1.1-2.7c1.6,0.7,4,1.4,6.4,1.4
	c3.4,0,5.2-1.2,5.2-4.3v-3.8c-1.4,1.9-3.5,2.7-5.6,2.7c-5,0-8.1-4-8.1-9.3S1723.7,200.2,1728.7,200.2L1728.7,200.2z M1734.4,209.4
	c0-3.6-1.5-6.3-5.1-6.3s-5.3,2.8-5.3,6.3v0.2c0,3.5,1.6,6.3,5.3,6.3c3.6,0,5.1-2.7,5.1-6.3V209.4z M1745.7,192.6
	c1.3,0,2.4,1.1,2.4,2.4c0,1.4-1.1,2.4-2.4,2.4c-1.4,0-2.4-1.1-2.4-2.4C1743.2,193.7,1744.3,192.6,1745.7,192.6z M1747.3,220.6h-3.3
	v-20h3.3V220.6L1747.3,220.6z M1758.8,215.6c0,1.3,0.2,2.4,2.6,2.4c0.6,0,1.9-0.1,2.5-0.2l0.4,2.9c0,0-1.9,0.3-3.6,0.3
	c-3.2,0-5.1-1.2-5.1-4.6v-12.8h-3.8v-2.9h3.8v-6.5l3.3-1.2v7.7h5.6v2.9h-5.6v12H1758.8z M1774.3,221c-4,0-7-2.3-7-6
	c0-3.1,2.1-5.2,5.3-5.6l7-1v-1.3c0-3-2-4-4.4-4c-2.2,0-4.2,0.7-5.8,1.6l-1.2-2.6c2.3-1.3,4.9-1.8,7.3-1.8c4.8,0,7.4,2.2,7.4,6.4v9.3
	c0,1.3,0.5,2.2,1.6,2.7l-1.8,2.4c-1.3-0.3-2.2-1.3-2.7-2.4C1778.9,219.9,1777,221,1774.3,221L1774.3,221z M1774.3,211.7
	c-2.2,0.3-3.6,1-3.6,3.1c0,2.3,1.9,3.6,4.1,3.6c2.4,0,4.9-1.6,4.9-3.9v-3.6L1774.3,211.7L1774.3,211.7z M1789.2,192.6h3.3v23.5
	c0,1.3,0.4,2,1.9,2c0.8,0,1.5-0.1,2-0.1l0.3,2.8c0,0-1.9,0.2-3.3,0.2c-2.4,0-4.2-1-4.2-3.9L1789.2,192.6L1789.2,192.6z"/>
<g>
	<path class="st7" d="M1117.3,189.7l-19.7,17l19.7,17 M1101.6,206.7h39.1"/>
</g>
<g>
	<path class="st8" d="M1197.6,217.8c0,1.5-1.2,2.7-2.7,2.7h-13.2c-1.5,0-2.7-1.2-2.7-2.7V208c0-1.5,1.2-2.7,2.7-2.7h13.2
		c1.5,0,2.7,1.2,2.7,2.7V217.8z"/>
	<path class="st9" d="M1193.9,207.2c0,2-1.6,3.6-3.6,3.6h-3.9c-2,0-3.6-1.6-3.6-3.6v-6.7c0-2,1.6-3.6,3.6-3.6h3.9
		c2,0,3.6,1.6,3.6,3.6V207.2L1193.9,207.2z"/>
</g>
<path class="st1" d="M1078,636h862v4h-862V636z"/>
<path class="st10" d="M957.5,1035.3c0,13.8-11.2,25-25,25h-463c-13.8,0-25-11.2-25-25V172c0-13.8,11.2-25,25-25h463
	c13.8,0,25,11.2,25,25V1035.3z"/>
<rect x="468.8" y="273.5" class="st11" width="464.4" height="635.7"/>
<rect x="468.8" y="274" class="st12" width="464.4" height="635.3"/>
<path class="st13" d="M476,281.3h450v39.2H476V281.3z"/>
<path d="M513.1,291.4h2.2v7c0.9-1.2,2.3-1.8,3.9-1.8c3,0,4.5,2.1,4.5,4.6v9.2h-2.2v-8.5c0-2.4-1.2-3.3-2.8-3.3
	c-1.7,0-3.5,1.2-3.5,3.7v8H513L513.1,291.4L513.1,291.4z M531.4,307c0,0.9,0.2,1.6,1.7,1.6c0.4,0,1.3-0.1,1.7-0.2l0.2,1.9
	c0,0-1.3,0.2-2.4,0.2c-2.1,0-3.5-0.8-3.5-3.1v-8.7h-2.5v-1.9h2.5v-4.4l2.2-0.8v5.2h3.8v1.9h-3.8L531.4,307L531.4,307z M541.7,307
	c0,0.9,0.2,1.6,1.7,1.6c0.4,0,1.3-0.1,1.7-0.2l0.2,1.9c0,0-1.3,0.2-2.4,0.2c-2.1,0-3.5-0.8-3.5-3.1v-8.7h-2.5v-1.9h2.5v-4.4l2.2-0.8
	v5.2h3.8v1.9h-3.8L541.7,307L541.7,307z M550.7,296.8v1.5c0.8-1.1,2.2-1.8,3.9-1.8c3.5,0,5.7,2.9,5.7,7s-2.2,7-5.7,7
	c-1.7,0-3.2-0.7-3.9-1.8v5.6h-2.2v-17.6L550.7,296.8L550.7,296.8z M558,303.5c0-2.8-1.4-5-3.8-5c-2.4,0-3.6,1.7-3.6,3.9v2.2
	c0,2.2,1.2,3.9,3.6,3.9C556.7,308.5,558,306.3,558,303.5L558,303.5z M562.7,308.6l1.4-1.6c0.9,0.7,2.3,1.6,4.1,1.6
	c1.5,0,2.7-0.7,2.7-2c0-1.5-1.5-1.8-3.3-2.3c-1.9-0.5-4.2-1.2-4.2-3.9c0-2.3,2.1-3.9,4.9-3.9c1.8,0,3.8,0.8,4.7,1.7l-1.3,1.5
	c-0.8-0.7-2-1.3-3.3-1.3c-1.8,0-2.7,0.8-2.7,2c0,1,0.8,1.5,1.9,1.8c0.7,0.2,1.5,0.4,2.2,0.6c1.8,0.6,3.3,1.5,3.3,3.7
	c0,2.8-2.5,4.1-5.1,4.1C566.2,310.6,564.2,310,562.7,308.6L562.7,308.6z M578.1,296.8c1,0,1.8,0.8,1.8,1.8s-0.8,1.8-1.8,1.8
	s-1.8-0.8-1.8-1.8S577.1,296.8,578.1,296.8z M578.1,307c1,0,1.8,0.8,1.8,1.8s-0.8,1.8-1.8,1.8s-1.8-0.8-1.8-1.8S577.1,307,578.1,307
	z M589.5,291.4h2.3l-6.6,18.9h-2.3L589.5,291.4L589.5,291.4z M597.5,291.4h2.3l-6.6,18.9h-2.3L597.5,291.4L597.5,291.4z
	 M612.8,310.3h-2.2v-8.5c0-2.4-1.2-3.2-2.7-3.2s-3,1.1-3,3.8v8h-2.2v-13.5h2.2v1.5c0.9-1.2,2.1-1.8,3.5-1.8c1.2,0,2.9,0.6,3.6,2.2
	c1-1.6,2.6-2.2,4.1-2.2c2.9,0,4.5,2.1,4.5,4.5v9.2h-2.2v-8.5c0-2.4-1.3-3.2-2.8-3.2s-3,1.1-3,3.8L612.8,310.3L612.8,310.3z
	 M623.4,296.8h2.5l3.3,11.1l3.2-11.1h2.5l-4.9,15.5c-0.6,1.9-1.9,2.4-3.6,2.4c-0.7,0-1.5-0.1-2.4-0.2l0.3-1.9c0,0,0.9,0.2,1.8,0.2
	c1,0,1.5-0.4,1.7-1.4l0.1-0.6L623.4,296.8L623.4,296.8z M637.6,301.4h5.7v2.1h-5.7V301.4L637.6,301.4z M651.2,310.6
	c-2.7,0-4.7-1.6-4.7-4.1c0-2.1,1.4-3.5,3.6-3.8l4.8-0.6v-0.9c0-2.1-1.3-2.7-3-2.7c-1.5,0-2.8,0.5-3.9,1.1l-0.8-1.8
	c1.5-0.9,3.3-1.2,4.9-1.2c3.3,0,5,1.5,5,4.3v6.3c0,0.9,0.4,1.5,1.1,1.8l-1.2,1.6c-0.9-0.2-1.5-0.9-1.8-1.6
	C654.3,309.9,653,310.6,651.2,310.6L651.2,310.6z M651.2,304.3c-1.5,0.2-2.5,0.7-2.5,2.1c0,1.6,1.3,2.4,2.8,2.4
	c1.6,0,3.3-1.1,3.3-2.6v-2.4L651.2,304.3L651.2,304.3z M663.5,296.8v1.5c0.8-1.1,2.2-1.8,3.9-1.8c3.5,0,5.7,2.9,5.7,7s-2.2,7-5.7,7
	c-1.7,0-3.2-0.7-3.9-1.8v5.6h-2.2v-17.6L663.5,296.8L663.5,296.8z M670.9,303.5c0-2.8-1.4-5-3.8-5c-2.4,0-3.6,1.7-3.6,3.9v2.2
	c0,2.2,1.2,3.9,3.6,3.9C669.6,308.5,670.9,306.3,670.9,303.5L670.9,303.5z M679,296.8v1.5c0.8-1.1,2.2-1.8,3.9-1.8
	c3.5,0,5.7,2.9,5.7,7s-2.2,7-5.7,7c-1.7,0-3.2-0.7-3.9-1.8v5.6h-2.2v-17.6L679,296.8L679,296.8z M686.4,303.5c0-2.8-1.4-5-3.8-5
	c-2.4,0-3.6,1.7-3.6,3.9v2.2c0,2.2,1.2,3.9,3.6,3.9C685.1,308.5,686.4,306.3,686.4,303.5L686.4,303.5z M693.7,307
	c1,0,1.8,0.8,1.8,1.8s-0.8,1.8-1.8,1.8s-1.8-0.8-1.8-1.8S692.7,307,693.7,307L693.7,307z M701,303.6c0,2.7,1.3,5,3.9,5
	c1.7,0,2.8-1,3.5-2.3l1.8,1.1c-0.9,1.9-2.9,3.2-5.3,3.2c-3.7,0-6.2-2.9-6.2-7s2.5-7,6.2-7c2.4,0,4.4,1.2,5.3,3.2l-1.8,1.1
	c-0.7-1.3-1.8-2.3-3.5-2.3C702.3,298.6,701,300.9,701,303.6L701,303.6L701,303.6z M713.5,291.4h2.2v15.9c0,0.9,0.3,1.4,1.3,1.4
	c0.6,0,1-0.1,1.4-0.1l0.2,1.9c0,0-1.3,0.2-2.2,0.2c-1.6,0-2.9-0.7-2.9-2.6V291.4L713.5,291.4z M732.6,303.6c0,4.1-2.5,7-6.2,7
	s-6.2-2.9-6.2-7s2.5-7,6.2-7C730.2,296.6,732.6,299.5,732.6,303.6z M730.4,303.7v-0.2c0-2.7-1.4-5-3.9-5c-2.6,0-3.9,2.3-3.9,5v0.2
	c0,2.6,1.4,5,3.9,5C729,308.6,730.4,306.3,730.4,303.7z M746.7,310.3h-2.2v-1.5c-0.9,1.2-2.3,1.8-3.9,1.8c-3,0-4.5-2.1-4.5-4.6v-9.2
	h2.2v8.5c0,2.4,1.2,3.3,2.8,3.3c1.8,0,3.5-1.2,3.5-3.7v-8h2.2L746.7,310.3L746.7,310.3z M759.9,308.8c-0.8,1.1-2.2,1.8-3.9,1.8
	c-3.5,0-5.7-2.9-5.7-7s2.2-7,5.7-7c1.7,0,3.2,0.7,3.9,1.8v-7h2.2v18.9h-2.2V308.8L759.9,308.8z M752.6,303.6c0,2.8,1.4,5,3.8,5
	c2.4,0,3.6-1.7,3.6-3.9v-2.2c0-2.2-1.2-3.9-3.6-3.9C753.9,298.6,752.6,300.8,752.6,303.6L752.6,303.6L752.6,303.6z M770.2,310.6
	c-2.7,0-4.7-1.6-4.7-4.1c0-2.1,1.4-3.5,3.6-3.8l4.8-0.6v-0.9c0-2.1-1.3-2.7-3-2.7c-1.5,0-2.8,0.5-3.9,1.1l-0.8-1.8
	c1.5-0.9,3.3-1.2,4.9-1.2c3.3,0,5,1.5,5,4.3v6.3c0,0.9,0.4,1.5,1.1,1.8l-1.2,1.6c-0.9-0.2-1.5-0.9-1.8-1.6
	C773.3,309.9,772,310.6,770.2,310.6L770.2,310.6z M770.2,304.3c-1.5,0.2-2.5,0.7-2.5,2.1c0,1.6,1.3,2.4,2.8,2.4
	c1.6,0,3.3-1.1,3.3-2.6v-2.4L770.2,304.3z M782.6,296.8v1.5c0.8-1.1,2.2-1.8,3.9-1.8c3.5,0,5.7,2.9,5.7,7s-2.2,7-5.7,7
	c-1.7,0-3.2-0.7-3.9-1.8v5.6h-2.2v-17.6L782.6,296.8L782.6,296.8z M789.9,303.5c0-2.8-1.4-5-3.8-5c-2.4,0-3.6,1.7-3.6,3.9v2.2
	c0,2.2,1.2,3.9,3.6,3.9C788.6,308.5,789.9,306.3,789.9,303.5L789.9,303.5z M798,296.8v1.5c0.8-1.1,2.2-1.8,3.9-1.8
	c3.5,0,5.7,2.9,5.7,7s-2.2,7-5.7,7c-1.7,0-3.2-0.7-3.9-1.8v5.6h-2.2v-17.6L798,296.8L798,296.8z M805.4,303.5c0-2.8-1.4-5-3.8-5
	c-2.4,0-3.6,1.7-3.6,3.9v2.2c0,2.2,1.2,3.9,3.6,3.9C804.1,308.5,805.4,306.3,805.4,303.5L805.4,303.5z M810.1,308.6l1.4-1.6
	c0.9,0.7,2.3,1.6,4.1,1.6c1.5,0,2.7-0.7,2.7-2c0-1.5-1.5-1.8-3.3-2.3c-1.9-0.5-4.2-1.2-4.2-3.9c0-2.3,2.1-3.9,4.9-3.9
	c1.8,0,3.8,0.8,4.7,1.7l-1.3,1.5c-0.8-0.7-2-1.3-3.3-1.3c-1.8,0-2.7,0.8-2.7,2c0,1,0.8,1.5,1.9,1.8c0.7,0.2,1.5,0.4,2.2,0.6
	c1.8,0.6,3.3,1.5,3.3,3.7c0,2.8-2.5,4.1-5.1,4.1C813.5,310.6,811.5,310,810.1,308.6L810.1,308.6z M825.4,307c1,0,1.8,0.8,1.8,1.8
	s-0.8,1.8-1.8,1.8s-1.8-0.8-1.8-1.8S824.4,307,825.4,307z M840.2,308.8c-0.8,1.1-2.2,1.8-3.9,1.8c-3.5,0-5.7-2.9-5.7-7s2.2-7,5.7-7
	c1.7,0,3.2,0.7,3.9,1.8v-7h2.2v18.9h-2.2V308.8L840.2,308.8z M832.8,303.6c0,2.8,1.4,5,3.8,5c2.4,0,3.6-1.7,3.6-3.9v-2.2
	c0-2.2-1.2-3.9-3.6-3.9C834.1,298.6,832.8,300.8,832.8,303.6L832.8,303.6z M847.8,291.4c0.9,0,1.6,0.8,1.6,1.6
	c0,0.9-0.7,1.6-1.6,1.6c-0.9,0-1.6-0.7-1.6-1.6C846.2,292.2,846.9,291.4,847.8,291.4z M848.9,310.3h-2.2v-13.5h2.2V310.3
	L848.9,310.3z M857.9,296.6c1.5,0,2.9,0.5,3.8,1.8v-1.5h2.2v13.6c0,3.4-2.9,4.3-5.8,4.3c-1.6,0-3.5-0.3-5-1.1l0.8-1.8
	c1.1,0.5,2.7,0.9,4.3,0.9c2.3,0,3.5-0.8,3.5-2.9v-2.6c-0.9,1.3-2.4,1.8-3.8,1.8c-3.4,0-5.5-2.7-5.5-6.3S854.6,296.6,857.9,296.6
	L857.9,296.6z M861.8,302.8c0-2.4-1-4.2-3.5-4.2s-3.6,1.9-3.6,4.2v0.1c0,2.4,1.1,4.2,3.6,4.2c2.4,0,3.5-1.8,3.5-4.2V302.8z
	 M869.4,291.4c0.9,0,1.6,0.8,1.6,1.6c0,0.9-0.7,1.6-1.6,1.6c-0.9,0-1.6-0.7-1.6-1.6C867.8,292.2,868.5,291.4,869.4,291.4z
	 M870.5,310.3h-2.2v-13.5h2.2V310.3L870.5,310.3z M878.3,307c0,0.9,0.2,1.6,1.7,1.6c0.4,0,1.3-0.1,1.7-0.2l0.2,1.9
	c0,0-1.3,0.2-2.4,0.2c-2.1,0-3.5-0.8-3.5-3.1v-8.7h-2.5v-1.9h2.5v-4.4l2.2-0.8v5.2h3.8v1.9h-3.8L878.3,307L878.3,307z M888.8,310.6
	c-2.7,0-4.7-1.6-4.7-4.1c0-2.1,1.4-3.5,3.6-3.8l4.8-0.6v-0.9c0-2.1-1.3-2.7-3-2.7c-1.5,0-2.8,0.5-3.9,1.1l-0.8-1.8
	c1.5-0.9,3.3-1.2,4.9-1.2c3.3,0,5,1.5,5,4.3v6.3c0,0.9,0.4,1.5,1.1,1.8l-1.2,1.6c-0.9-0.2-1.5-0.9-1.8-1.6
	C891.9,309.9,890.6,310.6,888.8,310.6L888.8,310.6z M888.8,304.3c-1.5,0.2-2.5,0.7-2.5,2.1c0,1.6,1.3,2.4,2.8,2.4
	c1.6,0,3.3-1.1,3.3-2.6v-2.4L888.8,304.3L888.8,304.3z M898.9,291.4h2.2v15.9c0,0.9,0.3,1.4,1.3,1.4c0.6,0,1-0.1,1.4-0.1l0.2,1.9
	c0,0-1.3,0.2-2.2,0.2c-1.6,0-2.9-0.7-2.9-2.6V291.4L898.9,291.4z"/>
<g>
	<path class="st8" d="M499.1,308.5c0,1-0.8,1.8-1.8,1.8h-8.9c-1,0-1.8-0.8-1.8-1.8v-6.6c0-1,0.8-1.8,1.8-1.8h8.9
		c1,0,1.8,0.8,1.8,1.8V308.5z"/>
	<path class="st14" d="M496.6,301.3c0,1.3-1.1,2.4-2.4,2.4h-2.6c-1.3,0-2.4-1.1-2.4-2.4v-4.5c0-1.3,1.1-2.4,2.4-2.4h2.6
		c1.3,0,2.4,1.1,2.4,2.4V301.3L496.6,301.3z"/>
</g>
<path class="st15" d="M444.5,725V172c0-13.8,11.2-25,25-25h273.2C742.7,146.9,444.5,738.8,444.5,725z"/>
<linearGradient id="SVGID_1_" gradientUnits="userSpaceOnUse" x1="1157.1296" y1="448.0437" x2="1157.1296" y2="427.8848" gradientTransform="matrix(1 0 0 -1 -456.1296 650.0471)">
	<stop  offset="0" style="stop-color:#868789"/>
	<stop  offset="1" style="stop-color:#313034"/>
</linearGradient>
<path class="st16" d="M745.2,212.2c0,2.8-2.3,5.1-5.1,5.1h-78.2c-2.8,0-5.1-2.3-5.1-5.1l0,0c0-2.8,2.3-5.1,5.1-5.1h78.2
	C742.9,207.1,745.2,209.4,745.2,212.2L745.2,212.2z"/>
<linearGradient id="SVGID_2_" gradientUnits="userSpaceOnUse" x1="1132.056" y1="-306.461" x2="1221.726" y2="-381.5336" gradientTransform="matrix(1 0 0 -1 -456.1296 650.0471)">
	<stop  offset="0" style="stop-color:#18131A"/>
	<stop  offset="0.1686" style="stop-color:#1C181E"/>
	<stop  offset="0.3601" style="stop-color:#29252C"/>
	<stop  offset="0.5628" style="stop-color:#3F3C41"/>
	<stop  offset="0.7733" style="stop-color:#5D5C60"/>
	<stop  offset="0.988" style="stop-color:#848587"/>
	<stop  offset="1" style="stop-color:#868789"/>
</linearGradient>
<path class="st17" d="M662.1,977.5c0-21.5,17.4-38.9,38.9-38.9s38.9,17.4,38.9,38.9s-17.4,38.9-38.9,38.9S662.1,999,662.1,977.5z"/>
<linearGradient id="SVGID_3_" gradientUnits="userSpaceOnUse" x1="1126.8959" y1="-302.141" x2="1187.3633" y2="-352.7649" gradientTransform="matrix(1 0 0 -1 -456.1296 650.0471)">
	<stop  offset="0" style="stop-color:#868789"/>
	<stop  offset="1" style="stop-color:#18131A"/>
</linearGradient>
<path class="st18" d="M662.1,977.5c0-21.5,17.4-38.9,38.9-38.9s38.9,17.4,38.9,38.9s-17.4,38.9-38.9,38.9S662.1,999,662.1,977.5z"/>
<g>
	<path class="st19" d="M687.5,970c0-3.3,2.7-5.9,5.9-5.9h15.2c3.3,0,5.9,2.7,5.9,5.9v15.2c0,3.3-2.7,5.9-5.9,5.9h-15.2
		c-3.3,0-5.9-2.7-5.9-5.9V970z"/>
</g>
<path class="st20" d="M616.1,212.2c0-4.3,3.5-7.7,7.7-7.7c4.3,0,7.7,3.5,7.7,7.7c0,4.3-3.5,7.7-7.7,7.7S616.1,216.5,616.1,212.2z"/>
<path class="st0" d="M470.9,325.7h460.2v67.8H470.9V325.7z"/>
<rect x="490.8" y="438.5" class="st21" width="374.1" height="197.1"/>
<g class="st22">
	<path d="M512.2,462.3l-10.4-13v24.3h-7.1v-35h7.2l10.4,13.7l10.7-13.7h6.9v35h-7.1v-24.3l-10.3,13H512.2z"/>
	<path d="M542.6,474.6l0.2-0.9h-0.5l-8.1-26.4h7.5l4.8,18.1l4.7-18.1h7.4l-9,30c-1.2,3.9-4.2,5-8.2,5c-1.7,0-4.4-0.2-6.2-0.5l1.4-6
		c0,0,1.8,0.3,3.6,0.3C541.7,476.2,542.3,475.6,542.6,474.6z"/>
	<path d="M573.4,447.4h6.8v2.3c1.5-1.5,3.5-2.8,6.7-2.8c5.7,0,9.1,4,9.1,9v17.7h-6.8v-15.2c0-3.7-1.8-5.1-4.1-5.1
		c-2.8,0-4.9,2-4.9,6v14.3h-6.8V447.4z"/>
	<path d="M607.6,462.8c0.7,3.3,3.3,5.1,6.4,5.1c2.6,0,4.9-0.8,6.6-2.5l3.4,5.1c-2.3,2-5.8,3.5-10.2,3.5c-7.2,0-13.2-5-13.2-13.4
		v-0.3c0-7.7,5.3-13.5,12.7-13.5c6.9,0,12,5.3,12,12.9v3.1H607.6z M607.7,457.7h10.6c-0.2-2.3-1.7-5-5.2-5
		C609.5,452.8,607.9,455.4,607.7,457.7z"/>
	<path d="M653.5,465l3.2-17.6h7.2l-6.1,26.2h-8l-3.9-17l-4.2,17h-7.9l-6.1-26.2h7.4l3.1,17.6l4.6-17.6h6.5L653.5,465z"/>
</g>
<g class="st22">
	<path d="M503.8,499c2.6,0,4.9,1,6.1,2.4v-1.9h6.8v25.9c0,6.5-5.2,9.1-11.5,9.1c-3.8,0-8.4-0.8-11.3-2.4l1.9-5.8
		c1.9,0.9,5.4,1.9,8.6,1.9c2.9,0,5.6-1,5.6-4.1v-3.2c-1.4,1.5-3.5,2.4-6.4,2.4c-6,0-10.7-4.9-10.7-11.9
		C492.7,504.5,496.8,499,503.8,499z M499.7,511.2c0,3.5,1.5,6.2,5.2,6.2c3.8,0,5.1-2.7,5.1-6.2c0-3.5-1.4-6.2-5.1-6.2
		C501.1,505,499.7,507.8,499.7,511.2z"/>
	<path d="M547.3,512.6c0,7.8-5.2,13.6-12.9,13.6c-7.7,0-12.9-5.9-12.9-13.6v-0.1c0-7.7,5.1-13.6,12.9-13.6
		C542.1,499,547.3,504.9,547.3,512.6L547.3,512.6z M540.4,512.6c-0.1-4.3-2.1-7.3-6-7.3c-3.9,0-5.9,3.1-6,7.3v0.1
		c0,4.3,2.1,7.3,6,7.3C538.3,519.9,540.3,516.9,540.4,512.6L540.4,512.6z"/>
	<path d="M557.2,525.7l-8-26.2h7.5l4.7,18l4.8-18h7.4l-8,26.2H557.2z"/>
	<path d="M582.5,514.9c0.7,3.3,3.3,5.1,6.4,5.1c2.6,0,4.9-0.8,6.6-2.5l3.4,5.1c-2.3,2-5.8,3.5-10.2,3.5c-7.2,0-13.2-5-13.2-13.4
		v-0.3c0-7.7,5.3-13.5,12.7-13.5c6.9,0,12,5.3,12,12.9v3.1H582.5z M582.6,509.8h10.6c-0.2-2.3-1.7-5-5.2-5
		C584.4,504.9,582.8,507.5,582.6,509.8z"/>
	<path d="M620.2,506.1H619c-3.9,0-7.3,1.3-7.3,6.9v12.7H605v-26.2h6.8v3c1.1-1.8,3.6-3.4,7-3.4h1.5V506.1z"/>
	<path d="M624.4,499.5h6.8v2.3c1.5-1.5,3.5-2.8,6.7-2.8c5.7,0,9.1,4,9.1,9v17.7h-6.8v-15.2c0-3.7-1.8-5.1-4.1-5.1
		c-2.8,0-4.9,2-4.9,6v14.3h-6.8V499.5z"/>
	<path d="M675.1,525.7h-6.8v-15.2c0-3.8-1.8-5.1-4-5.1c-2.6,0-4.6,1.8-4.6,6v14.3H653v-26.2h6.8v2.3c1.7-1.9,4.1-2.8,6.7-2.8
		c2.7,0,5.2,1.1,6.8,3.6c1.9-2.6,4.8-3.6,7.9-3.6c5.9,0,9.3,4.2,9.3,8.8v17.9h-6.8v-15.2c0-3.8-1.8-5.1-4-5.1c-2.6,0-4.6,1.8-4.6,6
		V525.7z"/>
	<path d="M702.2,514.9c0.7,3.3,3.3,5.1,6.4,5.1c2.6,0,4.9-0.8,6.6-2.5l3.4,5.1c-2.3,2-5.8,3.5-10.2,3.5c-7.2,0-13.2-5-13.2-13.4
		v-0.3c0-7.7,5.3-13.5,12.7-13.5c6.9,0,12,5.3,12,12.9v3.1H702.2z M702.2,509.8h10.6c-0.2-2.3-1.7-5-5.2-5
		C704.1,504.9,702.4,507.5,702.2,509.8z"/>
	<path d="M724.7,499.5h6.8v2.3c1.5-1.5,3.5-2.8,6.7-2.8c5.7,0,9.1,4,9.1,9v17.7h-6.8v-15.2c0-3.7-1.8-5.1-4.1-5.1
		c-2.8,0-4.9,2-4.9,6v14.3h-6.8V499.5z"/>
	<path d="M762.9,517.9c0,1.3,0.6,2.2,2.9,2.2c1,0,2.7-0.1,3.4-0.3l0.6,6c0,0-3.3,0.5-6.2,0.5c-4.7,0-7.4-2.1-7.4-6.7v-14h-4.7v-6.1
		h4.7v-7.4l6.8-1.8v9.2h6.9v6.1h-6.9V517.9z"/>
</g>
<g class="st22">
	<path d="M496,569.5c1.9,1.8,5,3.2,7.7,3.2c2.1,0,3.7-0.6,3.7-2.1c0-1.3-1-1.8-3.2-2.3c-1.5-0.4-4.3-0.9-6.5-1.9
		c-2.6-1.1-4.6-3.2-4.6-6.8c0-5.6,5-8.4,10.8-8.4c4.4,0,8.3,1.6,10.4,3.7l-4.3,4.5c-1.4-1.3-3.6-2.4-6-2.4c-1.9,0-3.7,0.7-3.7,2.2
		c0,1.2,1.2,1.7,3.1,2.2c3.3,0.9,5.6,1.4,7.5,2.4c2.1,1.1,3.7,3.4,3.7,6.3c0,5.6-4.8,8.4-10.6,8.4c-4.3,0-9.2-1.6-11.8-4L496,569.5z
		"/>
	<path d="M525.1,567.1c0.7,3.3,3.3,5.1,6.4,5.1c2.6,0,4.9-0.8,6.6-2.5l3.4,5.1c-2.3,2-5.8,3.5-10.2,3.5c-7.2,0-13.2-5-13.2-13.4
		v-0.3c0-7.7,5.3-13.5,12.7-13.5c6.9,0,12,5.3,12,12.9v3.1H525.1z M525.1,562h10.6c-0.2-2.3-1.7-5-5.2-5
		C527,557.1,525.3,559.7,525.1,562z"/>
	<path d="M562.8,558.3h-1.2c-3.9,0-7.3,1.3-7.3,6.9v12.7h-6.8v-26.2h6.8v3c1.1-1.8,3.6-3.4,7-3.4h1.5V558.3z"/>
	<path d="M572.5,577.9l-8-26.2h7.5l4.7,18l4.8-18h7.4l-8,26.2H572.5z"/>
	<path d="M596.1,541.6c2.4,0,4.3,1.9,4.3,4.3s-1.9,4.3-4.3,4.3s-4.3-1.9-4.3-4.3S593.8,541.6,596.1,541.6z M599.5,577.9h-6.8v-26.2
		h6.8V577.9z"/>
	<path d="M604.5,564.7c0-7.7,5.3-13.5,12.7-13.5c5.4,0,9.7,2.7,11.4,6.8l-6,3.1c-1-2.2-2.5-3.6-5.2-3.6c-4.1,0-5.9,3.8-5.9,7.2v0.3
		c0,3.4,1.8,7.2,5.9,7.2c2.7,0,4.2-1.4,5.2-3.6l6,3.1c-1.7,4.1-6.2,6.8-11.5,6.8c-7.4,0-12.6-5.8-12.6-13.5V564.7z"/>
	<path d="M638.6,567.1c0.7,3.3,3.3,5.1,6.4,5.1c2.6,0,4.9-0.8,6.6-2.5l3.4,5.1c-2.3,2-5.8,3.5-10.2,3.5c-7.2,0-13.2-5-13.2-13.4
		v-0.3c0-7.7,5.3-13.5,12.7-13.5c6.9,0,12,5.3,12,12.9v3.1H638.6z M638.6,562h10.6c-0.2-2.3-1.7-5-5.2-5
		C640.5,557.1,638.8,559.7,638.6,562z"/>
</g>
<path class="st23" d="M490.8,393.5h420.4v10.8H490.8V393.5z"/>
<g>
	<g>
		<g>
			<g>
				<path class="st2" d="M499.7,352.1c1.3,0.5,2.8-0.1,3.3-1.4s-0.1-2.7-1.4-3.3c-1.3-0.5-2.7,0.1-3.3,1.4
					C497.8,350.1,498.4,351.6,499.7,352.1"/>
				<path class="st2" d="M494,355.4c1.3,0.5,2.8-0.1,3.3-1.4s-0.1-2.8-1.4-3.3s-2.7,0.1-3.3,1.4C492.1,353.5,492.7,354.9,494,355.4"
					/>
				<path class="st2" d="M492.3,361.8c1.3,0.5,2.8-0.1,3.3-1.4s-0.1-2.8-1.4-3.3s-2.7,0.1-3.3,1.4
					C490.4,359.8,491.1,361.2,492.3,361.8"/>
				<path class="st2" d="M506,354.1c1.3,0.5,2.8-0.1,3.3-1.4s-0.1-2.7-1.4-3.3c-1.3-0.5-2.7,0.1-3.3,1.4
					C504.1,352.1,504.7,353.6,506,354.1"/>
				<path class="st2" d="M529,352.1c-1.3,0.5-2.8-0.1-3.3-1.4s0.1-2.7,1.4-3.3c1.3-0.5,2.7,0.1,3.3,1.4
					C530.8,350.1,530.2,351.6,529,352.1"/>
				<path class="st2" d="M534.6,355.4c-1.3,0.5-2.8-0.1-3.3-1.4s0.1-2.8,1.4-3.3c1.3-0.5,2.7,0.1,3.3,1.4
					C536.5,353.5,535.9,354.9,534.6,355.4"/>
				<path class="st2" d="M536.3,361.8c-1.3,0.5-2.8-0.1-3.3-1.4s0.1-2.8,1.4-3.3c1.3-0.5,2.7,0.1,3.3,1.4
					C538.2,359.8,537.6,361.2,536.3,361.8"/>
				<path class="st2" d="M522.6,354.1c-1.3,0.5-2.8-0.1-3.3-1.4s0.1-2.7,1.4-3.3c1.3-0.5,2.7,0.1,3.3,1.4
					C524.5,352.1,523.9,353.6,522.6,354.1"/>
			</g>
			<path class="st2" d="M515.6,347.6L515.6,347.6l3.2,1.7v-4.7l-3.2,1l0,0c-0.1-0.1-0.2-0.2-0.3-0.3l0,0l1.3-4h-2.3H512l1.3,4l0,0
				c-0.1,0.1-0.2,0.2-0.3,0.3l0,0l-3.2-1v4.7l3.2-1.7l0,0c0.1,0.1,0.2,0.2,0.3,0.3l-1.8,5.5l0,0l0,0l0,0c-0.1,0.3-0.1,0.6-0.1,0.9
				c0,1.5,1.1,2.7,2.5,2.9c0,0,0,0,0.1,0s0.2,0,0.4,0l0,0l0,0l0,0l0,0c0.1,0,0.2,0,0.4,0c0,0,0,0,0.1,0c1.4-0.2,2.5-1.4,2.5-2.9
				c0-0.3,0-0.6-0.1-0.9l0,0l0,0l0,0l-1.8-5.5C515.4,347.9,515.5,347.8,515.6,347.6z"/>
			<path class="st2" d="M514.3,374.5c6,0,11.7,0.4,16.8,1.1c1.4-6.1,3.2-9.5,5-12l-3.4-1.2c0.3,1.7,0.4,2.5,0,3.7
				c-0.6-0.5-1.1-1.6-1.5-3.1l-1.7,5.5c1-0.7,1.8-1.1,2.7-1.2c-1.6,3.4-3.5,4.3-4.8,4c-1.6-0.3-2.3-1.7-2-2.8
				c0.4-1.7,2.1-2.1,2.9-0.2c1.5-3.1-1.1-4.1-2.7-3.2c2.6-2.6,2.9-4.8,0.8-7.6c-2.9,2.2-2.9,4.4-1.6,7.4c-1.7-1.9-4.3-0.9-3.4,2.2
				c1.2-1.9,2.8-0.7,2.6,1.1c-0.2,1.6-2.3,2.8-4.8,2.6c-3.7-0.3-3.9-2.9-4-4.9c0.9-0.2,2.5,0.7,3.9,2.6l0.5-5.8
				c-1.5,1.6-2.9,1.9-4.4,1.9c0.5-1.6,2.8-4.2,2.8-4.2h-3.4l0,0l0,0h-3.9c0,0,2.3,2.6,2.8,4.2c-1.5,0-2.9-0.3-4.4-1.9l0.5,5.8
				c1.4-1.9,3-2.8,3.9-2.6c-0.1,2.1-0.3,4.6-4,4.9c-2.6,0.2-4.6-1-4.8-2.6c-0.3-1.8,1.4-3,2.6-1.1c0.9-3.1-1.7-4.1-3.4-2.2
				c1.3-3.1,1.3-5.2-1.6-7.4c-2.1,2.7-1.8,5,0.8,7.6c-1.7-0.9-4.3,0-2.7,3.2c0.8-1.9,2.5-1.5,2.9,0.2c0.2,1.2-0.5,2.6-2,2.8
				c-1.3,0.2-3.2-0.6-4.8-4c0.9,0,1.7,0.5,2.7,1.2l-1.7-5.5c-0.4,1.5-0.9,2.6-1.5,3.1c-0.4-1.1-0.3-1.9,0-3.7l-3.4,1.2
				c1.8,2.5,3.6,5.9,5,12C502.6,374.9,508.3,374.5,514.3,374.5z"/>
		</g>
	</g>
	<g>
		<path class="st2" d="M569.1,364.4h-7v-4.3h12.5v15.1h-4.9V372c-1.4,2.1-4.1,3.6-7.6,3.6c-8,0-12.6-6.3-12.6-14.2
			c0-7.9,5.2-14.2,13.2-14.2c5.2,0,9.5,2.5,11.3,6.4l-4.9,2.8c-1.2-2.4-3.1-4.1-6.5-4.1c-5.1,0-7.4,4.3-7.4,8.9v0.3
			c0,4.7,2.3,9.1,7.4,9.1C567.9,370.6,569.1,366.7,569.1,364.4z"/>
		<path class="st2" d="M591.1,375.6c-8.2,0-13.1-6.3-13.1-14.2c0-7.9,4.9-14.2,13.1-14.2c8.2,0,13.1,6.3,13.1,14.2
			C604.2,369.4,599.2,375.6,591.1,375.6z M591.1,352.4c-5,0-7.4,3.9-7.4,9.1v0.1c0,5.2,2.3,9.1,7.4,9.1c5,0,7.3-3.9,7.3-9.1
			C598.4,356.5,596.1,352.4,591.1,352.4z"/>
		<path class="st2" d="M612.8,375.3l-7.8-27.6h6.3l5.4,20.3l5.3-20.3h6.3l-7.8,27.6H612.8z"/>
		<path class="st2" d="M631.8,368.3c2,0,3.7,1.7,3.7,3.7s-1.7,3.7-3.7,3.7s-3.7-1.7-3.7-3.7C628.1,369.9,629.8,368.3,631.8,368.3z"
			/>
		<path class="st2" d="M655.9,364.7v-17.1h5.5v17.9c0,6.1-4.7,10.1-11.2,10.1s-11.2-3.9-11.2-10.1v-17.9h5.5v17.1
			c0,4,2.5,5.9,5.7,5.9C653.5,370.6,655.9,368.8,655.9,364.7z"/>
		<path class="st2" d="M666.8,347.7h5.6v11.9l9.8-11.9h6.9l-9.6,10.9l10.2,16.6h-6.5l-7.3-12.4l-3.5,4v8.4h-5.6L666.8,347.7
			L666.8,347.7z"/>
	</g>
</g>
<g>
	<g>
		<line class="st24" x1="219.8" y1="410.6" x2="219.8" y2="410.6"/>
		<line class="st25" x1="219.8" y1="430.2" x2="219.8" y2="557.7"/>
		<line class="st24" x1="219.8" y1="567.5" x2="219.8" y2="567.5"/>
		<line class="st26" x1="240.3" y1="567.5" x2="373.5" y2="567.5"/>
		<line class="st24" x1="383.7" y1="567.5" x2="383.7" y2="567.5"/>
	</g>
</g>
<polyline class="st27" points="378.7,539.3 411.9,567.5 378.7,595.7 "/>
</svg>
