<?xml version="1.0" encoding="utf-8"?>
<!-- Generator: Adobe Illustrator 16.0.0, SVG Export Plug-In . SVG Version: 6.00 Build 0)  -->
<!DOCTYPE svg PUBLIC "-//W3C//DTD SVG 1.1//EN" "http://www.w3.org/Graphics/SVG/1.1/DTD/svg11.dtd">
<svg version="1.1" id="Layer_1" xmlns="http://www.w3.org/2000/svg" xmlns:xlink="http://www.w3.org/1999/xlink" x="0px" y="0px"
	 width="960px" height="640px" viewBox="0 0 960 640" enable-background="new 0 0 960 640" xml:space="preserve">
<line fill="none" stroke="#005EA5" stroke-width="7" stroke-miterlimit="10" x1="479.132" y1="500.017" x2="479.132" y2="291.604"/>
<line fill="none" stroke="#005EA5" stroke-width="7" stroke-miterlimit="10" x1="479.132" y1="298.551" x2="479.132" y2="90.139"/>
<line fill="none" stroke="#005EA5" stroke-width="7" stroke-miterlimit="10" x1="597.232" y1="302.024" x2="597.232" y2="93.612"/>
<line fill="none" stroke="#005EA5" stroke-width="7" stroke-miterlimit="10" x1="364.505" y1="289.867" x2="364.505" y2="81.455"/>
<rect x="15.24" y="262.079" fill="#FFFFFF" stroke="#005EA5" stroke-width="4" stroke-miterlimit="10" width="931.604" height="104.207"/>
<polygon fill="#005EA5" points="790.014,98.822 689.976,-1.216 689.976,48.629 268.288,48.629 268.288,-1.216 168.25,98.822 
	268.288,198.86 268.288,149.883 689.976,149.883 689.976,198.86 "/>
<path fill="#D1EBFB" d="M874.768,506.963c-6.946,0-13.547,1.043-19.973,2.779c-13.721-38.903-52.798-66.865-98.996-66.865
	c-26.398,0-50.366,9.204-68.775,24.314c-18.41-15.11-42.378-24.314-68.776-24.314c-26.399,0-50.366,9.204-68.776,24.314
	c-18.41-15.11-42.377-24.314-68.776-24.314c-0.347,0-0.694,0-1.042,0s-0.694,0-1.042,0c-26.398,0-50.366,9.204-68.776,24.314
	c-18.41-15.11-42.377-24.314-68.776-24.314s-50.366,9.204-68.776,24.314c-18.41-15.11-42.377-24.314-68.776-24.314
	c-46.198,0-85.275,28.136-98.996,66.865c-6.252-1.736-13.026-2.779-19.973-2.779c-37.861,0-69.123,29.005-69.123,64.956
	s31.262,65.129,69.818,65.129H341.58h137.552c0.347,0,0.694,0,1.042,0s0.694,0,1.042,0h137.552h256.348
	c38.557,0,69.818-29.178,69.818-65.129C944.586,535.968,913.324,506.963,874.768,506.963z"/>
<g>
	<g>
		
			<rect x="-1.606" y="-194.692" fill="#BFC1C3" stroke="#848484" stroke-width="2" stroke-miterlimit="10" width="66.866" height="97.954"/>
		
			<line opacity="0.5" fill="none" stroke="#595959" stroke-width="4" stroke-miterlimit="10" enable-background="new    " x1="3.256" y1="-159.436" x2="58.659" y2="-159.436"/>
		
			<line opacity="0.5" fill="none" stroke="#FFFFFF" stroke-width="2" stroke-miterlimit="10" enable-background="new    " x1="3.43" y1="-161.693" x2="58.833" y2="-161.693"/>
		
			<line opacity="0.5" fill="none" stroke="#595959" stroke-width="4" stroke-miterlimit="10" enable-background="new    " x1="3.256" y1="-150.057" x2="58.659" y2="-150.057"/>
		
			<line opacity="0.5" fill="none" stroke="#FFFFFF" stroke-width="2" stroke-miterlimit="10" enable-background="new    " x1="3.43" y1="-152.315" x2="58.833" y2="-152.315"/>
		
			<line opacity="0.5" fill="none" stroke="#595959" stroke-width="4" stroke-miterlimit="10" enable-background="new    " x1="3.256" y1="-140.679" x2="58.659" y2="-140.679"/>
		
			<line opacity="0.5" fill="none" stroke="#FFFFFF" stroke-width="2" stroke-miterlimit="10" enable-background="new    " x1="3.43" y1="-142.936" x2="58.833" y2="-142.936"/>
		
			<line opacity="0.5" fill="none" stroke="#595959" stroke-width="4" stroke-miterlimit="10" enable-background="new    " x1="3.256" y1="-131.3" x2="58.659" y2="-131.3"/>
		
			<line opacity="0.5" fill="none" stroke="#FFFFFF" stroke-width="2" stroke-miterlimit="10" enable-background="new    " x1="3.43" y1="-133.558" x2="58.833" y2="-133.558"/>
		
			<line opacity="0.5" fill="none" stroke="#595959" stroke-width="4" stroke-miterlimit="10" enable-background="new    " x1="3.256" y1="-121.748" x2="58.659" y2="-121.748"/>
		
			<line opacity="0.5" fill="none" stroke="#FFFFFF" stroke-width="2" stroke-miterlimit="10" enable-background="new    " x1="3.43" y1="-124.005" x2="58.833" y2="-124.005"/>
		
			<line opacity="0.5" fill="none" stroke="#595959" stroke-width="4" stroke-miterlimit="10" enable-background="new    " x1="3.256" y1="-112.369" x2="58.659" y2="-112.369"/>
		
			<line opacity="0.5" fill="none" stroke="#FFFFFF" stroke-width="2" stroke-miterlimit="10" enable-background="new    " x1="3.43" y1="-114.627" x2="58.833" y2="-114.627"/>
		
			<line opacity="0.5" fill="none" stroke="#595959" stroke-width="4" stroke-miterlimit="10" enable-background="new    " x1="3.256" y1="-102.99" x2="58.659" y2="-102.99"/>
		
			<line opacity="0.5" fill="none" stroke="#FFFFFF" stroke-width="2" stroke-miterlimit="10" enable-background="new    " x1="3.43" y1="-105.248" x2="58.833" y2="-105.248"/>
		<g>
			<circle fill="#66AA00" cx="7.946" cy="-177.845" r="4.168"/>
			<circle opacity="0.5" fill="#C8F47A" enable-background="new    " cx="8.467" cy="-178.54" r="2.258"/>
		</g>
		<circle fill="#A82B00" cx="19.061" cy="-177.845" r="4.168"/>
		<circle opacity="0.5" fill="#F28B7C" enable-background="new    " cx="19.582" cy="-178.54" r="2.258"/>
	</g>
	<g>
		
			<rect x="105.899" y="-194.692" fill="#BFC1C3" stroke="#848484" stroke-width="2" stroke-miterlimit="10" width="66.866" height="97.954"/>
		
			<line opacity="0.5" fill="none" stroke="#595959" stroke-width="4" stroke-miterlimit="10" enable-background="new    " x1="110.763" y1="-159.436" x2="166.166" y2="-159.436"/>
		
			<line opacity="0.5" fill="none" stroke="#FFFFFF" stroke-width="2" stroke-miterlimit="10" enable-background="new    " x1="110.936" y1="-161.693" x2="166.339" y2="-161.693"/>
		
			<line opacity="0.5" fill="none" stroke="#595959" stroke-width="4" stroke-miterlimit="10" enable-background="new    " x1="110.763" y1="-150.057" x2="166.166" y2="-150.057"/>
		
			<line opacity="0.5" fill="none" stroke="#FFFFFF" stroke-width="2" stroke-miterlimit="10" enable-background="new    " x1="110.936" y1="-152.315" x2="166.339" y2="-152.315"/>
		
			<line opacity="0.5" fill="none" stroke="#595959" stroke-width="4" stroke-miterlimit="10" enable-background="new    " x1="110.763" y1="-140.679" x2="166.166" y2="-140.679"/>
		
			<line opacity="0.5" fill="none" stroke="#FFFFFF" stroke-width="2" stroke-miterlimit="10" enable-background="new    " x1="110.936" y1="-142.936" x2="166.339" y2="-142.936"/>
		
			<line opacity="0.5" fill="none" stroke="#595959" stroke-width="4" stroke-miterlimit="10" enable-background="new    " x1="110.763" y1="-131.3" x2="166.166" y2="-131.3"/>
		
			<line opacity="0.5" fill="none" stroke="#FFFFFF" stroke-width="2" stroke-miterlimit="10" enable-background="new    " x1="110.936" y1="-133.558" x2="166.339" y2="-133.558"/>
		
			<line opacity="0.5" fill="none" stroke="#595959" stroke-width="4" stroke-miterlimit="10" enable-background="new    " x1="110.763" y1="-121.748" x2="166.166" y2="-121.748"/>
		
			<line opacity="0.5" fill="none" stroke="#FFFFFF" stroke-width="2" stroke-miterlimit="10" enable-background="new    " x1="110.936" y1="-124.005" x2="166.339" y2="-124.005"/>
		
			<line opacity="0.5" fill="none" stroke="#595959" stroke-width="4" stroke-miterlimit="10" enable-background="new    " x1="110.763" y1="-112.369" x2="166.166" y2="-112.369"/>
		
			<line opacity="0.5" fill="none" stroke="#FFFFFF" stroke-width="2" stroke-miterlimit="10" enable-background="new    " x1="110.936" y1="-114.627" x2="166.339" y2="-114.627"/>
		
			<line opacity="0.5" fill="none" stroke="#595959" stroke-width="4" stroke-miterlimit="10" enable-background="new    " x1="110.763" y1="-102.99" x2="166.166" y2="-102.99"/>
		
			<line opacity="0.5" fill="none" stroke="#FFFFFF" stroke-width="2" stroke-miterlimit="10" enable-background="new    " x1="110.936" y1="-105.248" x2="166.339" y2="-105.248"/>
		<g>
			<circle fill="#66AA00" cx="115.278" cy="-177.845" r="4.168"/>
			<circle opacity="0.5" fill="#C8F47A" enable-background="new    " cx="115.973" cy="-178.54" r="2.258"/>
		</g>
		<circle fill="#A82B00" cx="126.567" cy="-177.845" r="4.168"/>
		<circle opacity="0.5" fill="#F28B7C" enable-background="new    " cx="127.088" cy="-178.54" r="2.258"/>
	</g>
	<g>
		
			<rect x="212.364" y="-194.692" fill="#BFC1C3" stroke="#848484" stroke-width="2" stroke-miterlimit="10" width="66.866" height="97.954"/>
		
			<line opacity="0.5" fill="none" stroke="#595959" stroke-width="4" stroke-miterlimit="10" enable-background="new    " x1="217.4" y1="-159.436" x2="272.629" y2="-159.436"/>
		
			<line opacity="0.5" fill="none" stroke="#FFFFFF" stroke-width="2" stroke-miterlimit="10" enable-background="new    " x1="217.574" y1="-161.693" x2="272.803" y2="-161.693"/>
		
			<line opacity="0.5" fill="none" stroke="#595959" stroke-width="4" stroke-miterlimit="10" enable-background="new    " x1="217.4" y1="-150.057" x2="272.629" y2="-150.057"/>
		
			<line opacity="0.5" fill="none" stroke="#FFFFFF" stroke-width="2" stroke-miterlimit="10" enable-background="new    " x1="217.574" y1="-152.315" x2="272.803" y2="-152.315"/>
		
			<line opacity="0.5" fill="none" stroke="#595959" stroke-width="4" stroke-miterlimit="10" enable-background="new    " x1="217.4" y1="-140.679" x2="272.629" y2="-140.679"/>
		
			<line opacity="0.5" fill="none" stroke="#FFFFFF" stroke-width="2" stroke-miterlimit="10" enable-background="new    " x1="217.574" y1="-142.936" x2="272.803" y2="-142.936"/>
		
			<line opacity="0.5" fill="none" stroke="#595959" stroke-width="4" stroke-miterlimit="10" enable-background="new    " x1="217.4" y1="-131.3" x2="272.629" y2="-131.3"/>
		
			<line opacity="0.5" fill="none" stroke="#FFFFFF" stroke-width="2" stroke-miterlimit="10" enable-background="new    " x1="217.574" y1="-133.558" x2="272.803" y2="-133.558"/>
		
			<line opacity="0.5" fill="none" stroke="#595959" stroke-width="4" stroke-miterlimit="10" enable-background="new    " x1="217.4" y1="-121.748" x2="272.629" y2="-121.748"/>
		
			<line opacity="0.5" fill="none" stroke="#FFFFFF" stroke-width="2" stroke-miterlimit="10" enable-background="new    " x1="217.574" y1="-124.005" x2="272.803" y2="-124.005"/>
		
			<line opacity="0.5" fill="none" stroke="#595959" stroke-width="4" stroke-miterlimit="10" enable-background="new    " x1="217.4" y1="-112.369" x2="272.629" y2="-112.369"/>
		
			<line opacity="0.5" fill="none" stroke="#FFFFFF" stroke-width="2" stroke-miterlimit="10" enable-background="new    " x1="217.574" y1="-114.627" x2="272.803" y2="-114.627"/>
		
			<line opacity="0.5" fill="none" stroke="#595959" stroke-width="4" stroke-miterlimit="10" enable-background="new    " x1="217.4" y1="-102.99" x2="272.629" y2="-102.99"/>
		
			<line opacity="0.5" fill="none" stroke="#FFFFFF" stroke-width="2" stroke-miterlimit="10" enable-background="new    " x1="217.574" y1="-105.248" x2="272.803" y2="-105.248"/>
		<g>
			<circle fill="#66AA00" cx="221.916" cy="-177.845" r="4.168"/>
			<circle opacity="0.5" fill="#C8F47A" enable-background="new    " cx="222.437" cy="-178.54" r="2.258"/>
		</g>
		<circle fill="#A82B00" cx="233.031" cy="-177.845" r="4.168"/>
		<circle opacity="0.5" fill="#F28B7C" enable-background="new    " cx="233.552" cy="-178.54" r="2.258"/>
	</g>
</g>
<g>
	<path fill="#005EA5" d="M391.251,293.862c2.258-0.348,5.037-0.695,8.684-0.695c4.516,0,7.815,1.042,9.899,2.953
		c1.911,1.737,3.126,4.168,3.126,7.294s-0.868,5.731-2.779,7.468c-2.431,2.605-6.252,3.821-10.768,3.821
		c-1.39,0-2.605,0-3.647-0.348v14.068h-4.516V293.862L391.251,293.862z M395.767,310.882c1.042,0.348,2.258,0.348,3.821,0.348
		c5.384,0,8.857-2.605,8.857-7.469c0-4.688-3.3-6.947-8.336-6.947c-1.91,0-3.474,0.174-4.342,0.348V310.882z"/>
	<path fill="#005EA5" d="M418.519,291.604h4.516v36.993h-4.516V291.604z"/>
	<path fill="#005EA5" d="M444.743,328.597l-0.347-3.126h-0.174c-1.39,1.91-4.168,3.821-7.642,3.821
		c-5.037,0-7.643-3.647-7.643-7.295c0-6.078,5.385-9.378,15.11-9.378v-0.521c0-2.084-0.521-5.905-5.731-5.905
		c-2.258,0-4.863,0.695-6.6,1.911l-1.042-2.953c2.084-1.389,5.036-2.258,8.336-2.258c7.643,0,9.553,5.211,9.553,10.247v9.379
		c0,2.258,0.174,4.342,0.348,6.078H444.743z M444.049,315.745c-5.037-0.174-10.595,0.694-10.595,5.731
		c0,2.952,1.911,4.342,4.343,4.342c3.3,0,5.384-2.084,6.078-4.168c0.174-0.521,0.348-1.043,0.348-1.39v-4.516H444.049z"/>
	<path fill="#005EA5" d="M461.243,296.12v7.294h6.6v3.474h-6.6v13.547c0,3.126,0.868,4.862,3.474,4.862
		c1.216,0,2.084-0.174,2.604-0.347l0.174,3.474c-0.868,0.347-2.258,0.694-3.994,0.694c-2.084,0-3.821-0.694-4.863-1.91
		c-1.39-1.39-1.736-3.647-1.736-6.601v-13.72h-3.821v-3.474h3.821v-6.079L461.243,296.12z"/>
	<path fill="#005EA5" d="M473.4,328.597v-21.709h-3.474v-3.474h3.474v-1.216c0-3.474,0.694-6.773,2.952-8.857
		c1.737-1.737,3.995-2.258,6.079-2.258c1.562,0,2.952,0.347,3.82,0.694l-0.694,3.474c-0.694-0.347-1.563-0.521-2.952-0.521
		c-3.821,0-4.863,3.473-4.863,7.294v1.39h6.079v3.474h-6.079v21.709H473.4L473.4,328.597z"/>
	<path fill="#005EA5" d="M510.394,315.745c0,9.378-6.426,13.373-12.505,13.373c-6.773,0-12.157-5.037-12.157-13.026
		c0-8.51,5.558-13.373,12.505-13.373C505.356,302.719,510.394,308.104,510.394,315.745z M490.247,316.092
		c0,5.559,3.126,9.727,7.642,9.727c4.342,0,7.642-4.168,7.642-9.727c0-4.342-2.084-9.726-7.468-9.726
		S490.247,311.229,490.247,316.092z"/>
	<path fill="#005EA5" d="M516.125,311.229c0-2.953,0-5.558-0.174-7.815h3.994l0.174,5.036h0.174
		c1.216-3.474,3.821-5.558,6.947-5.558c0.521,0,0.868,0,1.39,0.174v4.342c-0.521-0.174-0.869-0.174-1.563-0.174
		c-3.3,0-5.558,2.432-6.079,5.905c-0.173,0.694-0.173,1.39-0.173,2.084v13.373h-4.516v-17.367H516.125z"/>
	<path fill="#005EA5" d="M533.318,310.188c0-2.605,0-4.689-0.173-6.773h3.994l0.174,3.994h0.174c1.39-2.432,3.82-4.689,7.989-4.689
		c3.474,0,6.078,2.085,7.12,5.037h0.174c0.868-1.39,1.737-2.432,2.779-3.3c1.562-1.216,3.126-1.737,5.558-1.737
		c3.3,0,8.336,2.258,8.336,10.942v14.763h-4.516v-14.068c0-4.863-1.736-7.815-5.558-7.815c-2.604,0-4.688,1.91-5.384,4.168
		c-0.174,0.695-0.348,1.39-0.348,2.258v15.631h-4.516v-15.109c0-3.995-1.736-6.947-5.21-6.947c-2.952,0-4.863,2.258-5.731,4.516
		c-0.348,0.694-0.348,1.39-0.348,2.258v15.283h-4.516V310.188z"/>
</g>
<g>
	<path fill="#FFFFFF" d="M361.378,113.237V98.301l-11.115-20.146h5.21l5.037,9.726c1.389,2.605,2.431,4.863,3.474,7.294h0.173
		c1.042-2.258,2.258-4.516,3.474-7.294l5.037-9.726h5.21l-11.81,20.146v14.936H361.378z"/>
	<path fill="#FFFFFF" d="M400.456,100.385c0,9.378-6.426,13.373-12.505,13.373c-6.773,0-12.157-5.037-12.157-13.025
		c0-8.51,5.558-13.374,12.504-13.374C395.593,87.359,400.456,92.744,400.456,100.385z M380.483,100.733
		c0,5.558,3.126,9.726,7.642,9.726c4.342,0,7.642-4.168,7.642-9.726c0-4.342-2.084-9.726-7.468-9.726
		C382.741,90.833,380.483,95.87,380.483,100.733z"/>
	<path fill="#FFFFFF" d="M427.376,106.291c0,2.605,0,4.863,0.174,6.947h-3.995l-0.174-4.168h-0.173
		c-1.216,2.084-3.821,4.689-8.337,4.689c-3.995,0-8.684-2.258-8.684-11.115V87.881h4.516v13.894c0,4.863,1.39,7.989,5.558,7.989
		c3.126,0,5.21-2.084,6.078-4.168c0.174-0.695,0.348-1.563,0.348-2.432V87.707h4.516v18.583H427.376z"/>
	<path fill="#FFFFFF" d="M435.018,95.87c0-2.953,0-5.558-0.174-7.815h3.995l0.173,5.037h0.174c1.216-3.474,3.821-5.558,6.947-5.558
		c0.521,0,0.868,0,1.216,0.174v4.342c-0.521-0.174-0.868-0.174-1.563-0.174c-3.3,0-5.558,2.432-6.078,5.905
		c-0.174,0.695-0.174,1.389-0.174,2.084v13.373h-4.516V95.87z"/>
	<path fill="#FFFFFF" d="M462.459,108.548c1.389,0.868,3.82,1.737,6.078,1.737c3.3,0,4.863-1.737,4.863-3.821
		c0-2.258-1.39-3.3-4.689-4.689c-4.516-1.563-6.6-4.168-6.6-7.121c0-3.995,3.3-7.468,8.684-7.468c2.605,0,4.863,0.695,6.253,1.563
		l-1.216,3.3c-1.042-0.695-2.779-1.39-5.211-1.39c-2.778,0-4.168,1.563-4.168,3.474c0,2.084,1.563,2.953,4.863,4.342
		c4.342,1.737,6.6,3.821,6.6,7.642c0,4.342-3.474,7.468-9.379,7.468c-2.778,0-5.384-0.695-7.121-1.737L462.459,108.548z"/>
	<path fill="#FFFFFF" d="M486.252,101.427c0.174,6.252,3.995,8.684,8.685,8.684c3.3,0,5.21-0.521,6.946-1.39l0.695,3.3
		c-1.563,0.695-4.342,1.563-8.337,1.563c-7.815,0-12.331-5.037-12.331-12.679c0-7.642,4.516-13.547,11.811-13.547
		c8.162,0,10.42,7.294,10.42,11.81c0,0.869-0.173,1.737-0.173,2.084h-17.716V101.427z M499.625,98.127
		c0-2.953-1.215-7.468-6.426-7.468c-4.689,0-6.6,4.342-6.947,7.468H499.625z"/>
	<path fill="#FFFFFF" d="M509.699,95.87c0-2.953,0-5.558-0.174-7.815h3.994l0.174,5.037h0.174c1.216-3.474,3.82-5.558,6.947-5.558
		c0.521,0,0.868,0,1.389,0.174v4.342c-0.521-0.174-0.868-0.174-1.562-0.174c-3.3,0-5.558,2.432-6.079,5.905
		c-0.174,0.695-0.174,1.389-0.174,2.084v13.373h-4.516V95.87H509.699z"/>
	<path fill="#FFFFFF" d="M529.846,88.054l4.862,14.242c0.868,2.258,1.563,4.342,2.084,6.426h0.174
		c0.521-2.084,1.39-4.168,2.084-6.426l4.863-14.242h4.863l-9.899,25.183h-4.343l-9.552-25.183H529.846z"/>
	<path fill="#FFFFFF" d="M558.328,80.934c0,1.563-1.042,2.779-2.952,2.779c-1.563,0-2.779-1.216-2.779-2.779
		s1.216-2.779,2.779-2.779C557.112,77.981,558.328,79.371,558.328,80.934z M553.118,113.237V88.054h4.516v25.183H553.118z"/>
	<path fill="#FFFFFF" d="M583.338,112.195c-1.216,0.695-3.821,1.39-7.295,1.39c-7.642,0-12.504-5.21-12.504-12.852
		c0-7.816,5.384-13.374,13.546-13.374c2.779,0,5.037,0.695,6.427,1.39l-1.042,3.474c-1.042-0.695-2.779-1.216-5.385-1.216
		c-5.73,0-8.857,4.342-8.857,9.552c0,5.905,3.821,9.378,8.685,9.378c2.604,0,4.342-0.695,5.558-1.216L583.338,112.195z"/>
	<path fill="#FFFFFF" d="M590.979,101.427c0.174,6.252,3.995,8.684,8.684,8.684c3.3,0,5.211-0.521,6.947-1.39l0.868,3.3
		c-1.562,0.695-4.342,1.563-8.336,1.563c-7.815,0-12.331-5.037-12.331-12.679c0-7.642,4.516-13.547,11.81-13.547
		c8.163,0,10.421,7.294,10.421,11.81c0,0.869-0.174,1.737-0.174,2.084h-17.889V101.427z M604.353,98.127
		c0-2.953-1.216-7.468-6.426-7.468c-4.689,0-6.6,4.342-6.947,7.468H604.353z"/>
</g>
<g>
	<path fill="#005EA5" d="M343.837,527.805h25.009v3.994H358.6v32.478h-4.516v-32.478h-10.247V527.805z"/>
	<path fill="#005EA5" d="M373.883,527.805h4.342v13.373c0.869-1.216,1.911-2.084,3.3-2.605c1.39-0.521,2.779-0.868,4.342-0.868
		c1.389,0,2.779,0.174,3.821,0.694c1.042,0.521,1.91,1.043,2.779,1.911c0.868,0.868,1.216,1.736,1.563,2.778s0.521,2.258,0.521,3.3
		v17.716h-4.342v-16.326c0-1.216-0.174-2.084-0.348-2.952c-0.347-0.868-0.694-1.39-1.215-1.911
		c-0.521-0.521-1.042-0.868-1.737-1.042c-0.695-0.173-1.39-0.347-2.084-0.347c-0.869,0-1.563,0.174-2.432,0.521
		c-0.869,0.348-1.563,0.695-2.084,1.39c-0.521,0.694-1.216,1.39-1.563,2.258c-0.347,0.868-0.521,1.91-0.521,3.126v15.457h-4.342
		V527.805L373.883,527.805z"/>
	<path fill="#005EA5" d="M404.972,552.641c0,1.216,0.347,2.432,0.694,3.3c0.348,0.868,1.042,1.91,1.737,2.605
		c0.695,0.694,1.563,1.389,2.432,1.736c1.042,0.348,2.084,0.694,3.126,0.694c1.39,0,2.779-0.173,3.821-0.694
		c1.042-0.521,2.084-1.042,2.952-1.736l2.258,3.126c-1.216,0.868-2.605,1.736-3.995,2.258c-1.563,0.521-3.3,0.868-5.21,0.868
		c-1.911,0-3.647-0.348-5.037-1.042c-1.563-0.695-2.779-1.563-3.821-2.779c-1.042-1.216-1.911-2.604-2.432-4.342
		c-0.521-1.736-0.869-3.474-0.869-5.384s0.348-3.821,0.869-5.384c0.521-1.737,1.389-3.126,2.432-4.342
		c1.042-1.216,2.257-2.084,3.647-2.779c1.39-0.694,3.126-1.042,4.863-1.042s3.3,0.348,4.689,1.042
		c1.39,0.695,2.605,1.563,3.474,2.779c1.042,1.216,1.736,2.604,2.258,4.342c0.521,1.736,0.694,3.474,0.694,5.384v1.39H404.972
		L404.972,552.641z M412.092,541.525c-1.042,0-2.084,0.174-2.953,0.694c-0.868,0.521-1.563,1.042-2.258,1.737
		c-0.695,0.694-1.042,1.562-1.389,2.431c-0.348,0.869-0.521,1.911-0.521,2.779h13.72c0-1.042-0.174-1.91-0.521-2.952
		c-0.347-0.869-0.695-1.737-1.39-2.432c-0.521-0.695-1.215-1.216-2.084-1.737C413.829,541.525,413.134,541.525,412.092,541.525z"/>
	<path fill="#005EA5" d="M440.923,527.805h4.516v36.472h-4.516V527.805z"/>
	<path fill="#005EA5" d="M453.948,538.226h4.342v2.952c0.869-1.216,1.911-2.084,3.3-2.605c1.39-0.521,2.779-0.868,4.342-0.868
		c1.39,0,2.779,0.174,3.821,0.694c1.042,0.521,1.91,1.043,2.779,1.911c0.868,0.868,1.216,1.736,1.562,2.778
		c0.348,1.042,0.521,2.258,0.521,3.3v17.716h-4.342v-16.326c0-1.216-0.174-2.084-0.348-2.952c-0.348-0.868-0.694-1.39-1.216-1.911
		c-0.521-0.521-1.042-0.868-1.736-1.042c-0.695-0.173-1.39-0.347-2.085-0.347c-0.868,0-1.562,0.174-2.431,0.521
		c-0.869,0.348-1.563,0.695-2.085,1.39c-0.521,0.694-1.216,1.39-1.562,2.258c-0.348,0.868-0.521,1.91-0.521,3.126v15.457h-4.342
		V538.226L453.948,538.226z"/>
	<path fill="#005EA5" d="M488.857,557.851c0,0.521,0,0.868,0.174,1.216c0,0.348,0.174,0.695,0.348,1.042
		c0.174,0.348,0.521,0.521,1.042,0.695c0.521,0.173,1.042,0.173,1.736,0.173c0.174,0,0.521,0,0.695,0c0.173,0,0.521,0,0.868,0
		s0.521,0,0.868-0.173c0.348,0,0.521,0,0.694-0.174l0.521,3.82c-0.521,0-1.042,0.174-1.563,0.174c-0.521,0-0.868,0.174-1.389,0.174
		c-0.521,0-1.042,0-1.563,0c-1.042,0-1.91-0.174-2.779-0.348c-0.868-0.173-1.562-0.521-2.084-1.042
		c-0.521-0.521-1.042-1.042-1.389-1.91c-0.348-0.694-0.521-1.736-0.521-2.779v-16.673h-4.863v-3.82h4.863v-8.511l4.342-1.562v10.073
		h7.295v3.82h-7.295V557.851z"/>
	<path fill="#005EA5" d="M504.314,552.641c0,1.216,0.348,2.432,0.695,3.3c0.347,0.868,1.042,1.91,1.736,2.605
		c0.695,0.694,1.563,1.389,2.432,1.736c1.042,0.348,2.084,0.694,3.126,0.694c1.39,0,2.779-0.173,3.821-0.694
		c1.042-0.521,2.084-1.042,2.952-1.736l2.258,3.126c-1.216,0.868-2.604,1.736-3.994,2.258c-1.563,0.521-3.3,0.868-5.211,0.868
		c-1.91,0-3.646-0.348-5.036-1.042c-1.563-0.695-2.779-1.563-3.821-2.779s-1.91-2.604-2.432-4.342
		c-0.521-1.736-0.868-3.474-0.868-5.384s0.348-3.821,0.868-5.384c0.521-1.737,1.39-3.126,2.432-4.342s2.258-2.084,3.647-2.779
		c1.39-0.694,3.126-1.042,4.863-1.042c1.736,0,3.3,0.348,4.689,1.042c1.389,0.695,2.604,1.563,3.473,2.779
		c1.043,1.216,1.737,2.604,2.258,4.342c0.521,1.736,0.695,3.474,0.695,5.384v1.39H504.314L504.314,552.641z M511.436,541.525
		c-1.042,0-2.084,0.174-2.952,0.694c-0.869,0.521-1.563,1.042-2.258,1.737c-0.695,0.694-1.042,1.562-1.39,2.431
		c-0.348,0.869-0.521,1.911-0.521,2.779h13.721c0-1.042-0.174-1.91-0.521-2.952c-0.348-0.869-0.695-1.737-1.39-2.432
		c-0.521-0.695-1.216-1.216-2.084-1.737C513.172,541.525,512.478,541.525,511.436,541.525z"/>
	<path fill="#005EA5" d="M542.003,542.046h-0.695c-1.042,0-2.084,0.174-3.126,0.348s-1.91,0.694-2.604,1.39
		c-0.695,0.694-1.39,1.562-1.911,2.778c-0.521,1.216-0.694,2.605-0.694,4.342v13.374h-4.342v-26.052h4.342v4.168
		c0.348-0.694,0.694-1.39,1.216-2.084c0.521-0.695,1.216-1.042,1.91-1.39c0.695-0.348,1.39-0.694,2.258-0.868
		s1.563-0.348,2.432-0.348h1.216V542.046L542.003,542.046z"/>
	<path fill="#005EA5" d="M546.865,538.226h4.343v2.952c0.868-1.216,1.91-2.084,3.3-2.605c1.389-0.521,2.778-0.868,4.342-0.868
		c1.389,0,2.778,0.174,3.82,0.694c1.042,0.521,1.911,1.043,2.779,1.911s1.216,1.736,1.562,2.778c0.348,1.042,0.521,2.258,0.521,3.3
		v17.716h-4.342v-16.326c0-1.216-0.174-2.084-0.348-2.952c-0.348-0.868-0.694-1.39-1.216-1.911
		c-0.521-0.521-1.042-0.868-1.736-1.042c-0.695-0.173-1.39-0.347-2.084-0.347c-0.869,0-1.563,0.174-2.432,0.521
		c-0.868,0.348-1.563,0.695-2.084,1.39c-0.521,0.694-1.216,1.39-1.563,2.258s-0.521,1.91-0.521,3.126v15.457h-4.342V538.226z"/>
	<path fill="#005EA5" d="M578.128,552.641c0,1.216,0.347,2.432,0.694,3.3s1.042,1.91,1.736,2.605
		c0.695,0.694,1.563,1.389,2.432,1.736c1.042,0.348,2.084,0.694,3.126,0.694c1.39,0,2.779-0.173,3.821-0.694
		c1.042-0.521,2.084-1.042,2.952-1.736l2.258,3.126c-1.216,0.868-2.604,1.736-3.994,2.258c-1.563,0.521-3.3,0.868-5.21,0.868
		c-1.911,0-3.647-0.348-5.037-1.042c-1.562-0.695-2.778-1.563-3.82-2.779c-1.043-1.216-1.911-2.604-2.432-4.342
		c-0.521-1.736-0.869-3.474-0.869-5.384s0.348-3.821,0.869-5.384c0.521-1.737,1.389-3.126,2.432-4.342
		c1.042-1.216,2.258-2.084,3.646-2.779c1.39-0.694,3.127-1.042,4.863-1.042s3.3,0.348,4.689,1.042
		c1.389,0.695,2.604,1.563,3.474,2.779c1.042,1.216,1.736,2.604,2.258,4.342c0.521,1.736,0.694,3.474,0.694,5.384v1.39H578.128
		L578.128,552.641z M585.248,541.525c-1.042,0-2.084,0.174-2.952,0.694c-0.868,0.521-1.563,1.042-2.258,1.737
		c-0.694,0.694-1.042,1.562-1.39,2.431c-0.348,0.869-0.521,1.911-0.521,2.779h13.72c0-1.042-0.173-1.91-0.521-2.952
		c-0.348-0.869-0.694-1.737-1.39-2.432c-0.521-0.695-1.216-1.216-2.084-1.737C586.985,541.525,586.29,541.525,585.248,541.525z"/>
	<path fill="#005EA5" d="M608.868,557.851c0,0.521,0,0.868,0.174,1.216c0,0.348,0.174,0.695,0.348,1.042
		c0.174,0.348,0.521,0.521,1.042,0.695c0.521,0.173,1.042,0.173,1.736,0.173c0.174,0,0.521,0,0.695,0s0.521,0,0.868,0
		s0.521,0,0.868-0.173c0.348,0,0.521,0,0.695-0.174l0.521,3.82c-0.521,0-1.042,0.174-1.563,0.174c-0.521,0-0.868,0.174-1.389,0.174
		c-0.521,0-1.042,0-1.563,0c-1.042,0-1.91-0.174-2.778-0.348c-0.869-0.173-1.563-0.521-2.085-1.042
		c-0.521-0.521-1.042-1.042-1.389-1.91c-0.348-0.694-0.521-1.736-0.521-2.779v-16.673h-4.862v-3.82h4.862v-8.511l4.342-1.562v10.073
		h7.295v3.82h-7.295V557.851L608.868,557.851z"/>
</g>
<path fill="#6AC3EF" d="M248.141,414.914"/>
</svg>
