<?xml version="1.0" encoding="utf-8"?>
<!-- Generator: Adobe Illustrator 21.0.0, SVG Export Plug-In . SVG Version: 6.00 Build 0)  -->
<svg version="1.1" id="Layer_1" xmlns="http://www.w3.org/2000/svg" xmlns:xlink="http://www.w3.org/1999/xlink" x="0px" y="0px"
	 viewBox="0 0 543 355.6" style="enable-background:new 0 0 543 355.6;" xml:space="preserve">
<style type="text/css">
	.st0{fill:#BFC1C3;}
	.st1{fill:#262626;stroke:#969696;stroke-miterlimit:10;}
	.st2{fill:none;}
	.st3{enable-background:new    ;}
	.st4{fill:#666666;}
	.st5{fill:#FFFFFF;}
</style>
<g>
	<path class="st0" d="M542,345.1c0,3.8-2.9,7-6.4,7H7.4c-3.5,0-6.4-3.2-6.4-7V7.9c0-3.8,2.9-7,6.4-7h528.2c3.5,0,6.4,3.2,6.4,7
		L542,345.1L542,345.1z"/>
</g>
<rect x="6.2" y="38.3" class="st1" width="530.1" height="309.5"/>
<rect x="20.7" y="55" class="st2" width="485" height="278.9"/>
<g class="st3">
	<path class="st4" d="M29.7,56v9.4h1.9v1.5h-1.9V71h-1.7v-4.1h-6v-1.2l6.4-9.6H29.7z M23.6,65.4h4.4v-6.7L23.6,65.4z"/>
</g>
<g class="st3">
	<path class="st4" d="M30.9,84.8v1.5h-6.2l-0.2,4.3c0.8-0.4,1.6-0.6,2.4-0.6c2.5,0,4.5,1.8,4.5,5c0,3.2-2.1,5-4.7,5
		c-1.8,0-3.4-0.8-4.4-2.3l1.5-1.1c0.2,0.1,0.1,0.4,0.2,0.6c0.1,0.2,1.1,1.4,2.7,1.4c1.6,0,3-1.3,3-3.6c0-2.4-1.5-3.6-3.1-3.6
		c-1,0-2.1,0.5-2.8,1.4l-1.1-0.4l0.5-7.6H30.9z"/>
</g>
<g class="st3">
	<path class="st4" d="M30.9,114.9l-1.2,1.3c-0.2-0.2-0.2-0.4-0.4-0.5c-0.1-0.1-0.8-0.6-1.7-0.6c-1.1,0-3.5,0.7-3.6,5.8
		c0.7-1.1,1.9-1.8,3.2-1.8c2.1,0,4.1,1.8,4.1,4.9c0,3.1-2,5-4.3,5c-1.3,0-2.7-0.7-3.5-2c-1-1.5-1.1-3.3-1.1-5.1
		c0-1.4,0.1-3.2,0.6-4.6c0.9-2.6,2.9-3.7,4.6-3.7C28.8,113.5,30,114,30.9,114.9z M24.1,122.4c-0.2,2.8,1.2,4.9,3,4.9
		c1.3,0,2.6-1.1,2.6-3.4c0-2.6-1.4-3.5-2.6-3.5C25.9,120.4,24.8,121.2,24.1,122.4z"/>
</g>
<g class="st3">
	<path class="st4" d="M31.1,142.5v0.9c-1,2.3-2,4.7-2.8,7c-0.9,2.3-1.7,4.6-2.4,7H24c0.9-2.7,1.8-5.4,2.9-8c0.7-1.8,1.4-3.6,2.2-5.4
		h-6.4v-1.6H31.1z"/>
</g>
<g class="st3">
	<path class="st4" d="M30.8,174.6c0,1.4-0.9,2.8-2.4,3.6c1.7,0.8,2.9,2.4,2.9,4.1c0,2.3-2,4.1-4.6,4.1c-2.6,0-4.5-1.8-4.5-4
		c0-1.7,1.2-3.4,3-4.2c-1.3-0.7-2.3-2-2.3-3.5c0-2,1.8-3.7,4-3.7C29.1,171.1,30.8,172.6,30.8,174.6z M23.9,182.2
		c0,1.5,1.3,2.7,2.9,2.7c1.6,0,2.8-1.2,2.8-2.6c0-1.5-1.3-2.8-3.2-3.4C25,179.5,23.9,180.8,23.9,182.2z M24.5,174.6c0,2,2.6,3,2.6,3
		c1.2-0.6,2.1-1.7,2.1-2.9c0-1.2-1-2.2-2.4-2.2C25.5,172.5,24.5,173.4,24.5,174.6z"/>
</g>
<g class="st3">
	<path class="st4" d="M22.6,213.9l1.2-1.3c0.3,0.2,0.2,0.4,0.4,0.6c0,0,0.7,0.5,1.8,0.5c1.1,0,2.3-0.5,3-2.1
		c0.2-0.4,0.5-1.4,0.6-3.7c-0.7,1-1.8,1.6-3.1,1.6c-2.2,0-4.1-1.8-4.1-4.7c0-2.9,2-5,4.3-5c1.6,0,3.3,1,4.1,3.2
		c0.3,1,0.5,2.3,0.5,4.2c0,2.4-0.4,3.7-0.6,4.4c-0.9,2.4-2.8,3.5-4.6,3.5C24.7,215.3,23.5,214.8,22.6,213.9z M29.5,206.3
		c0.3-3-1.2-4.9-2.9-4.9c-1.4,0-2.6,1.2-2.6,3.4c0,2.2,1.3,3.3,2.6,3.3C27.7,208.1,28.8,207.4,29.5,206.3z"/>
</g>
<g class="st3">
	<path class="st4" d="M27.9,243.8h-1.7v-12.9l-3,0.9l-0.4-0.9l3.9-2.1h1.2V243.8z"/>
	<path class="st4" d="M43.5,236.6c0,5.1-2.6,7.5-4.7,7.5c-2.4,0-4.9-2.8-4.9-7.6c0-4.8,2.5-7.7,4.8-7.7
		C41.1,228.7,43.5,231.5,43.5,236.6z M38.7,230.2c-1.5,0-3.2,2.1-3.2,5.9c0,1.1,0.1,2,0.3,2.8l5.3-6.8
		C40.5,230.8,39.6,230.2,38.7,230.2z M36.4,240.5c0.6,1.3,1.6,2,2.5,2c1.3,0,3.1-1.6,3.1-5.8c0-1.2-0.1-2.2-0.3-3L36.4,240.5z"/>
</g>
<g class="st3">
	<path class="st4" d="M27.9,272.6h-1.7v-12.9l-3,0.9l-0.4-0.9l3.9-2.1h1.2V272.6z"/>
	<path class="st4" d="M39.9,272.6h-1.7v-12.9l-3,0.9l-0.4-0.9l3.9-2.1h1.2V272.6z"/>
</g>
<g class="st3">
	<path class="st4" d="M27.9,301.4h-1.7v-12.9l-3,0.9l-0.4-0.9l3.9-2.1h1.2V301.4z"/>
	<path class="st4" d="M38.8,286.3c2.4,0,4.3,1.9,4.3,4.2c0,2.2-1.5,3.7-2.6,4.7c-1.1,1-2.8,2.5-4.1,4.7h6.3c0.1,0,0.2,0,0.3-0.1
		c0,0,0.2-0.2,0.3-0.1v1.7h-8.8v-1.1c1.3-2.5,2.6-4,4.3-5.6c1.1-1,2.6-2.3,2.6-4.1c0-1.6-1.3-2.8-2.9-2.8c-1.3,0-2.2,0.8-2.6,1.4
		c-0.1,0.2-0.1,0.3-0.2,0.6l-1.2-1C35.5,287.3,37.1,286.3,38.8,286.3z"/>
</g>
<g class="st3">
	<path class="st4" d="M27.9,330.2h-1.7v-12.9l-3,0.9l-0.4-0.9l3.9-2.1h1.2V330.2z"/>
	<path class="st4" d="M40.4,322.2c1.6,0.6,2.6,2.1,2.6,3.9c0,2.3-1.7,4.4-4.6,4.4c-1.5,0-2.9-0.6-3.9-1.7l1.3-1.5
		c0.2,0.2,0.1,0.5,0.3,0.7c0.1,0.1,0.9,1,2.3,1c1.8,0,3-1.4,3-3c0-1.8-1.5-2.8-3.5-2.8c-0.3,0-0.5,0-0.8,0.1v-1.3
		c1.4,0,2.1-0.3,2.4-0.4c1-0.5,1.6-1.4,1.6-2.4c0-1.3-1.1-2.3-2.6-2.3c-0.9,0-1.9,0.4-2.6,1.1l-0.9-1c0.9-1,2.2-1.6,3.6-1.6
		c2.4,0,4.1,1.7,4.1,3.8C42.6,320.4,41.7,321.7,40.4,322.2z"/>
</g>
<rect x="65.7" y="55" class="st2" width="485" height="278.9"/>
<g class="st3">
	<path class="st5" d="M69.9,60l-0.1,2.1c0.7-1.6,2.3-2.4,3.9-2.4c1.2,0,2.2,0.5,2.9,1.2l-0.8,1.7c-0.2-0.2-0.3-0.4-0.4-0.5
		c-0.3-0.4-0.9-0.8-1.8-0.8c-0.8,0-2.1,0.3-3.1,1.8c-0.7,1.2-0.8,1.9-0.8,2.6V71h-1.7V60H69.9z"/>
	<path class="st5" d="M83.8,71.3c-2.8,0-5.1-2.4-5.1-5.7c0-3.4,2.4-5.8,5.2-5.8c2.5,0,4.9,2,4.9,5.8C88.8,69.2,86.4,71.3,83.8,71.3z
		 M80.5,65.5c0,2.7,1.6,4.3,3.3,4.3c1.6,0,3.2-1.4,3.2-4.2c0-3-1.7-4.4-3.3-4.4C82.1,61.3,80.5,62.8,80.5,65.5z"/>
	<path class="st5" d="M93,60v6.1c0,0.7,0,1.6,0.4,2.4c0.4,0.9,1.2,1.3,2.1,1.3c1.1,0,2-0.7,2.5-1.6c0.4-0.7,0.4-1.3,0.4-2.2v-6h1.7
		v10c0,0.3,0,0.7,0.1,1h-1.8c0-0.3,0-0.6,0-0.8l0-0.8c-0.7,1.2-2,1.9-3.4,1.9c-1.4,0-2.8-0.8-3.4-2.2c-0.4-1-0.4-1.9-0.4-2.9l0-6.1
		H93z"/>
	<path class="st5" d="M108.1,56.8c0.1,0.2-0.1,0.4-0.1,0.6c-0.1,0.6-0.3,2.6-0.3,2.6h3.6v1.4h-3.6c-0.1,1.4-0.2,2.9-0.2,4.3
		c0,1.6,0.1,2,0.1,2.1c0.2,1.3,1,1.8,1.8,1.8c0.7,0,1.5-0.3,2.5-1l0.5,1.4c-0.9,0.7-2.2,1.2-3.5,1.2c-1.1,0-2-0.4-2.5-1.2
		c-0.6-0.9-0.6-2-0.6-3c0-1.9,0.1-3.7,0.2-5.6h-2.6l0-1.4h2.6l0.2-2.9L108.1,56.8z"/>
	<path class="st5" d="M124.3,63.7c0.1,0.6,0.1,1.3,0.1,2.1h-7.8c0.1,3.3,2.3,4.1,3.7,4.1c1.1,0,2.1-0.4,2.8-1.2l1,0.9
		c-0.9,1.1-2.4,1.7-3.9,1.7c-3,0-5.3-2-5.3-5.6c0-4,2.4-5.9,5-5.9C121.7,59.8,123.8,60.7,124.3,63.7z M122.7,64.4
		c0.2-1.8-1.1-3.3-2.8-3.3c-1.2,0-2.8,0.8-3.2,3.3H122.7z"/>
	<path class="st5" d="M135.1,63c0,0-0.1,0-0.1-0.2c0-0.1,0-0.1-0.1-0.2c-0.4-0.5-1.5-1.5-3-1.5c-1.2,0-2.3,0.6-2.3,1.5
		c0,0.4,0.2,0.9,1.1,1.3c1,0.5,2.8,0.7,4,1.4c1.3,0.7,1.6,1.7,1.6,2.5c0,1.7-1.6,3.4-4.6,3.4c-1.7,0-3.3-0.5-4.6-1.7l1-1.7
		c0.1,0.1,0.1,0.2,0.1,0.2c0,0.1,0,0.2,0.1,0.3c0.3,0.4,1.6,1.5,3.4,1.5c1.6,0,2.8-0.7,2.8-1.7c0-0.4-0.2-1-1.1-1.4
		c-0.8-0.4-2-0.7-2.9-1c-0.6-0.2-2.7-0.9-2.7-2.8c0-1.6,1.7-3.1,4.2-3.1c1.6,0,3.1,0.6,4.1,1.7L135.1,63z"/>
	<path class="st5" d="M143.5,63.6c-0.8,0-1.4-0.6-1.4-1.4c0-0.8,0.6-1.4,1.4-1.4c0.8,0,1.4,0.6,1.4,1.4
		C144.9,63,144.3,63.6,143.5,63.6z M143.5,71.3c-0.8,0-1.4-0.6-1.4-1.4c0-0.8,0.6-1.4,1.4-1.4c0.8,0,1.4,0.6,1.4,1.4
		C144.9,70.7,144.3,71.3,143.5,71.3z"/>
</g>
<g class="st3">
	<path class="st5" d="M76.1,91.5v1.6h-8.6v-1.6H76.1z"/>
	<path class="st5" d="M93.9,88.8L93.9,91c0.7-1.6,2.3-2.4,3.9-2.4c1.2,0,2.2,0.5,2.9,1.2l-0.8,1.7c-0.2-0.2-0.3-0.4-0.4-0.5
		c-0.3-0.4-0.9-0.8-1.8-0.8c-0.8,0-2.1,0.3-3.1,1.8c-0.7,1.2-0.8,1.9-0.8,2.6v5.3h-1.7v-11H93.9z"/>
	<path class="st5" d="M107.8,100.1c-2.8,0-5.1-2.4-5.1-5.7c0-3.4,2.4-5.8,5.2-5.8c2.5,0,4.9,2,4.9,5.8
		C112.8,98,110.4,100.1,107.8,100.1z M104.5,94.3c0,2.7,1.6,4.3,3.3,4.3c1.6,0,3.2-1.4,3.2-4.2c0-3-1.7-4.4-3.3-4.4
		C106.1,90.1,104.5,91.6,104.5,94.3z"/>
	<path class="st5" d="M117,88.8V95c0,0.7,0,1.6,0.4,2.4c0.4,0.9,1.2,1.3,2.1,1.3c1.1,0,2-0.7,2.5-1.6c0.4-0.7,0.4-1.3,0.4-2.2v-6
		h1.7v10c0,0.3,0,0.7,0.1,1h-1.8c0-0.3,0-0.6,0-0.8l0-0.8c-0.7,1.2-2,1.9-3.4,1.9c-1.4,0-2.8-0.8-3.4-2.2c-0.4-1-0.4-1.9-0.4-2.9
		l0-6.1H117z"/>
	<path class="st5" d="M132.1,85.6c0.1,0.2-0.1,0.4-0.1,0.6c-0.1,0.6-0.3,2.6-0.3,2.6h3.6v1.4h-3.6c-0.1,1.4-0.2,2.9-0.2,4.3
		c0,1.6,0.1,2,0.1,2.1c0.2,1.3,1,1.8,1.8,1.8c0.7,0,1.5-0.3,2.5-1l0.5,1.4c-0.9,0.7-2.2,1.2-3.5,1.2c-1.1,0-2-0.4-2.5-1.2
		c-0.6-0.9-0.6-2-0.6-3c0-1.9,0.1-3.7,0.2-5.6h-2.6l0-1.4h2.6l0.2-2.9L132.1,85.6z"/>
	<path class="st5" d="M148.3,92.5c0.1,0.6,0.1,1.3,0.1,2.1h-7.8c0.1,3.3,2.3,4.1,3.7,4.1c1.1,0,2.1-0.4,2.8-1.2l1,0.9
		c-0.9,1.1-2.4,1.7-3.9,1.7c-3,0-5.3-2-5.3-5.6c0-4,2.4-5.9,5-5.9C145.7,88.6,147.8,89.5,148.3,92.5z M146.7,93.2
		c0.2-1.8-1.1-3.3-2.8-3.3c-1.2,0-2.8,0.8-3.2,3.3H146.7z"/>
	<path class="st5" d="M155.5,92.4c-0.8,0-1.4-0.6-1.4-1.4c0-0.8,0.6-1.4,1.4-1.4c0.8,0,1.4,0.6,1.4,1.4
		C156.9,91.8,156.3,92.4,155.5,92.4z M155.5,100.1c-0.8,0-1.4-0.6-1.4-1.4c0-0.8,0.6-1.4,1.4-1.4c0.8,0,1.4,0.6,1.4,1.4
		C156.9,99.5,156.3,100.1,155.5,100.1z"/>
	<path class="st5" d="M175.9,88.8c0.1,0.2,0,0.3,0,0.5c-0.1,0.2-0.1,0.3,0,0.4l1.6,7.9l1.9-7.8h1.1l2.3,7.8c0.9-6.2,1.1-7.5,1-8.8
		h1.6c-0.5,3.7-1.1,7.3-1.8,11h-1.6l-2-7.1l-1.9,7.1h-1.6l-2.2-11H175.9z"/>
	<path class="st5" d="M187.9,88.8c0.1,0.2,0,0.3,0,0.5c-0.1,0.2-0.1,0.3,0,0.4l1.6,7.9l1.9-7.8h1.1l2.3,7.8c0.9-6.2,1.1-7.5,1-8.8
		h1.6c-0.5,3.7-1.1,7.3-1.8,11h-1.6l-2-7.1l-1.9,7.1h-1.6l-2.2-11H187.9z"/>
	<path class="st5" d="M199.9,88.8c0.1,0.2,0,0.3,0,0.5c-0.1,0.2-0.1,0.3,0,0.4l1.6,7.9l1.9-7.8h1.1l2.3,7.8c0.9-6.2,1.1-7.5,1-8.8
		h1.6c-0.5,3.7-1.1,7.3-1.8,11h-1.6l-2-7.1l-1.9,7.1h-1.6l-2.2-11H199.9z"/>
	<path class="st5" d="M215.5,100.1c-0.8,0-1.4-0.6-1.4-1.4c0-0.8,0.6-1.4,1.4-1.4c0.8,0,1.4,0.6,1.4,1.4
		C216.9,99.5,216.3,100.1,215.5,100.1z"/>
	<path class="st5" d="M222.6,88.8h1.6l0,1.1c0.5-0.8,1.3-1.3,2.2-1.3c1,0,1.8,0.7,1.9,1.6c0.4-1,1.4-1.6,2.5-1.6
		c0.6,0,1.3,0.2,1.7,0.9c0.5,0.7,0.4,1.7,0.4,2.6v7.8h-1.6V92c0-0.5,0.1-1.1-0.1-1.6c-0.2-0.4-0.5-0.6-0.9-0.6c-0.7,0-1.1,0.7-1.3,1
		c-0.4,0.7-0.5,1.2-0.5,1.7v7.2H227v-7.6c0-0.5,0-1-0.1-1.4c-0.2-0.6-0.6-0.8-1-0.8c-0.4,0-0.9,0.3-1.3,1c-0.3,0.6-0.3,1.1-0.3,1.6
		v7.3h-1.6V88.8z"/>
	<path class="st5" d="M237,88.8c0,0.2-0.1,0.3-0.1,0.5c0,0.1,0,0.1,0,0.2l3.2,8.1l2.1-5.9c0.3-0.9,0.6-1.9,0.8-2.9h1.8
		c-0.3,1.1-0.7,2.1-1.1,3.2l-3.4,9.1c-0.2,0.6-0.5,1.2-0.9,1.7c-0.7,0.8-1.8,1.2-2.7,1.2c-0.9,0-1.7-0.3-2.4-0.9l0.9-1.6
		c0.1,0.1,0.1,0.3,0.2,0.4c0.1,0.1,0.5,0.7,1.3,0.7c0.5,0,1.1-0.2,1.5-0.7c0.3-0.4,0.6-0.8,0.8-1.3l0.4-0.8l-4.5-10.9H237z"/>
	<path class="st5" d="M251.8,88.6c1.7,0,3.1,0.6,3.8,1.8c0.5,0.8,0.5,1.7,0.5,2.6v6.8h-1.6v-1.2c-1.2,1-2.6,1.5-3.9,1.5
		c-2.3,0-3.7-1.5-3.7-3.1c0-1.2,0.8-2.5,2.5-3.1c1.4-0.5,3.1-0.5,4.7-0.5h0.4v-0.4c0-0.6,0-1.3-0.4-1.9c-0.3-0.5-1-1.1-2.3-1.1
		c-1,0-2.2,0.3-3.1,1.2l-0.8-1.1C248.9,89.1,250.3,88.6,251.8,88.6z M254.2,94.7c-1.1,0-2.6-0.1-3.6,0.2c-1.4,0.3-1.9,1.2-1.9,2
		c0,1,0.8,1.9,2.3,1.9c1.4,0,2.5-0.9,2.9-1.3c0.7-0.8,0.7-1.5,0.7-2.1v-0.7H254.2z"/>
	<path class="st5" d="M260.9,88.8v1.7c0.7-1.2,2.1-1.9,3.5-1.9c2.2,0,4.4,1.7,4.4,5.6c0,4-2.4,5.9-4.6,5.9c-1.3,0-2.6-0.7-3.3-1.7
		v5.4h-1.8l0-15H260.9z M261.2,91.7c-0.2,0.6-0.3,1.2-0.3,2.2c0,1.6,0,2.5,0.3,3.2c0.4,1,1.5,1.5,2.5,1.5c1,0,3.3-0.6,3.3-4
		c0-4-2.3-4.5-3.3-4.5C262.7,90.1,261.6,90.7,261.2,91.7z"/>
	<path class="st5" d="M272.9,88.8v1.7c0.7-1.2,2.1-1.9,3.5-1.9c2.2,0,4.4,1.7,4.4,5.6c0,4-2.4,5.9-4.6,5.9c-1.3,0-2.6-0.7-3.3-1.7
		v5.4h-1.8l0-15H272.9z M273.2,91.7c-0.2,0.6-0.3,1.2-0.3,2.2c0,1.6,0,2.5,0.3,3.2c0.4,1,1.5,1.5,2.5,1.5c1,0,3.3-0.6,3.3-4
		c0-4-2.3-4.5-3.3-4.5C274.7,90.1,273.6,90.7,273.2,91.7z"/>
	<path class="st5" d="M287.5,100.1c-0.8,0-1.4-0.6-1.4-1.4c0-0.8,0.6-1.4,1.4-1.4s1.4,0.6,1.4,1.4
		C288.9,99.5,288.3,100.1,287.5,100.1z"/>
	<path class="st5" d="M304.3,92.5c0.1,0.6,0.1,1.3,0.1,2.1h-7.8c0.1,3.3,2.3,4.1,3.7,4.1c1.1,0,2.1-0.4,2.8-1.2l1,0.9
		c-0.9,1.1-2.4,1.7-3.9,1.7c-3,0-5.3-2-5.3-5.6c0-4,2.4-5.9,5-5.9C301.7,88.6,303.8,89.5,304.3,92.5z M302.7,93.2
		c0.2-1.8-1.1-3.3-2.8-3.3c-1.2,0-2.8,0.8-3.2,3.3H302.7z"/>
	<path class="st5" d="M316.2,88.8l-3.6,5.3l4,5.6h-2l-3-4.3l-2.9,4.3h-1.9l3.9-5.6l-3.8-5.4h1.9l2.9,4.1l2.7-4.1H316.2z"/>
	<path class="st5" d="M323.8,88.6c1.7,0,3.1,0.6,3.8,1.8c0.5,0.8,0.5,1.7,0.5,2.6v6.8h-1.6v-1.2c-1.2,1-2.6,1.5-3.9,1.5
		c-2.3,0-3.7-1.5-3.7-3.1c0-1.2,0.8-2.5,2.5-3.1c1.4-0.5,3.1-0.5,4.7-0.5h0.4v-0.4c0-0.6,0-1.3-0.4-1.9c-0.3-0.5-1-1.1-2.3-1.1
		c-1,0-2.2,0.3-3.1,1.2l-0.8-1.1C320.9,89.1,322.3,88.6,323.8,88.6z M326.2,94.7c-1.1,0-2.6-0.1-3.6,0.2c-1.4,0.3-1.9,1.2-1.9,2
		c0,1,0.8,1.9,2.3,1.9c1.4,0,2.5-0.9,2.9-1.3c0.7-0.8,0.7-1.5,0.7-2.1v-0.7H326.2z"/>
	<path class="st5" d="M330.6,88.8h1.6l0,1.1c0.5-0.8,1.3-1.3,2.2-1.3c1,0,1.8,0.7,1.9,1.6c0.4-1,1.4-1.6,2.5-1.6
		c0.6,0,1.3,0.2,1.7,0.9c0.5,0.7,0.4,1.7,0.4,2.6v7.8h-1.6V92c0-0.5,0.1-1.1-0.1-1.6c-0.2-0.4-0.5-0.6-0.9-0.6c-0.7,0-1.1,0.7-1.3,1
		c-0.4,0.7-0.5,1.2-0.5,1.7v7.2H335v-7.6c0-0.5,0-1-0.1-1.4c-0.2-0.6-0.6-0.8-1-0.8c-0.4,0-0.9,0.3-1.3,1c-0.3,0.6-0.3,1.1-0.3,1.6
		v7.3h-1.6V88.8z"/>
	<path class="st5" d="M344.9,88.8v1.7c0.7-1.2,2.1-1.9,3.5-1.9c2.2,0,4.4,1.7,4.4,5.6c0,4-2.4,5.9-4.6,5.9c-1.3,0-2.6-0.7-3.3-1.7
		v5.4h-1.8l0-15H344.9z M345.2,91.7c-0.2,0.6-0.3,1.2-0.3,2.2c0,1.6,0,2.5,0.3,3.2c0.4,1,1.5,1.5,2.5,1.5c1,0,3.3-0.6,3.3-4
		c0-4-2.3-4.5-3.3-4.5C346.7,90.1,345.6,90.7,345.2,91.7z"/>
	<path class="st5" d="M360.6,83.9v14.6h3.2v1.4h-8.2v-1.4h3.3V85.2h-3.1v-1.4H360.6z"/>
	<path class="st5" d="M376.3,92.5c0.1,0.6,0.1,1.3,0.1,2.1h-7.8c0.1,3.3,2.3,4.1,3.7,4.1c1.1,0,2.1-0.4,2.8-1.2l1,0.9
		c-0.9,1.1-2.4,1.7-3.9,1.7c-3,0-5.3-2-5.3-5.6c0-4,2.4-5.9,5-5.9C373.7,88.6,375.8,89.5,376.3,92.5z M374.7,93.2
		c0.2-1.8-1.1-3.3-2.8-3.3c-1.2,0-2.8,0.8-3.2,3.3H374.7z"/>
	<path class="st5" d="M383.5,100.1c-0.8,0-1.4-0.6-1.4-1.4c0-0.8,0.6-1.4,1.4-1.4s1.4,0.6,1.4,1.4
		C384.9,99.5,384.3,100.1,383.5,100.1z"/>
	<path class="st5" d="M397.9,89.5c0.8-0.7,1.9-1.1,3-1l0.2,1.4c-0.2,0-0.4-0.1-0.6-0.1c-0.7,0-1.3,0.2-1.9,0.5
		c0.4,0.5,0.6,1.2,0.6,1.9c0,2-1.8,3.8-4,3.8c-0.5,0-0.9-0.1-1.4-0.2c-0.1,0.1-0.8,0.6-0.8,1.2c0,0.3,0.2,0.6,0.7,0.7
		c0.2,0.1,0.7,0.1,1.6,0.1c1.2,0,2.6-0.2,3.7,0.3c1.2,0.5,1.7,1.4,1.7,2.4c0,1.5-1.3,3.4-5,3.4c-3.8,0-5-1.4-5-2.6
		c0-0.9,0.6-1.7,1.8-2.4c-0.7-0.4-0.9-1-0.9-1.5c0-0.7,0.5-1.4,1.2-2.1c-1-0.7-1.6-1.8-1.6-3c0-2.1,1.9-3.9,4.1-3.9
		C396.3,88.5,397.2,88.9,397.9,89.5z M392.2,100.9c0,0.4,0.2,1,1.1,1.3c0.8,0.3,1.8,0.4,2.3,0.4c0.7,0,1.7,0,2.5-0.5
		c0.8-0.4,1-1,1-1.5c0-0.5-0.3-1.1-1.3-1.3c-0.6-0.1-1.5,0-2.3-0.1c-0.8,0-1.4-0.1-1.8-0.1C393,99.6,392.2,100.1,392.2,100.9z
		 M395.2,94.7c1.3,0,2.4-1.1,2.4-2.4s-1.1-2.4-2.4-2.4c-1.3,0-2.4,1.1-2.4,2.4C392.8,93.6,393.8,94.7,395.2,94.7z"/>
	<path class="st5" d="M407.8,100.1c-2.8,0-5.1-2.4-5.1-5.7c0-3.4,2.4-5.8,5.2-5.8c2.5,0,4.9,2,4.9,5.8
		C412.8,98,410.4,100.1,407.8,100.1z M404.5,94.3c0,2.7,1.6,4.3,3.3,4.3c1.6,0,3.2-1.4,3.2-4.2c0-3-1.7-4.4-3.3-4.4
		C406.1,90.1,404.5,91.6,404.5,94.3z"/>
	<path class="st5" d="M416.8,88.8c0,0.2-0.1,0.3-0.1,0.5c0,0.1,0,0.1,0,0.2l3.2,8l1.8-4.1c0.6-1.4,1.2-3,1.5-4.6h1.6
		c-0.4,1.7-1,3.3-1.6,4.8l-2.7,6.3H419l-4.3-11.1H416.8z"/>
	<path class="st5" d="M431.5,100.1c-0.8,0-1.4-0.6-1.4-1.4c0-0.8,0.6-1.4,1.4-1.4s1.4,0.6,1.4,1.4
		C432.9,99.5,432.3,100.1,431.5,100.1z"/>
	<path class="st5" d="M441,88.8V95c0,0.7,0,1.6,0.4,2.4c0.4,0.9,1.2,1.3,2.1,1.3c1.1,0,2-0.7,2.5-1.6c0.4-0.7,0.4-1.3,0.4-2.2v-6
		h1.7v10c0,0.3,0,0.7,0.1,1h-1.8c0-0.3,0-0.6,0-0.8l0-0.8c-0.7,1.2-2,1.9-3.4,1.9c-1.4,0-2.8-0.8-3.4-2.2c-0.4-1-0.4-1.9-0.4-2.9
		l0-6.1H441z"/>
	<path class="st5" d="M453.3,83.9c0,0.2-0.1,0.3-0.1,0.3c-0.1,0.1-0.1,0.2-0.1,0.3v9.4l5.5-5.1c0.4,0.1,0.9,0.1,1.3,0.1h0.6
		l-4.6,4.3l5.4,6.6c-0.1,0-0.1,0-0.2,0c-1.1,0-2.1,0.1-2.1,0.1l-4.5-5.6l-1.5,1.3v4.2h-1.7v-16H453.3z"/>
</g>
<g class="st3">
	<path class="st5" d="M72.7,146.4v9.6h2.6v1.4h-7.1V156h2.8v-8.2h-2.7v-1.4H72.7z M73.1,142.9c0,0.7-0.6,1.2-1.2,1.2
		c-0.7,0-1.2-0.6-1.2-1.2s0.6-1.2,1.2-1.2C72.5,141.7,73.1,142.2,73.1,142.9z"/>
	<path class="st5" d="M79.4,146.4h1.8v1.9c0.8-1.2,2.2-2.2,3.6-2.2c1.2,0,2.4,0.7,2.9,1.9c0.4,0.9,0.4,1.8,0.4,2.6v6.6h-1.7v-6.6
		c0-0.8,0-1.7-0.6-2.4c-0.4-0.5-0.9-0.7-1.5-0.7c-1.2,0-2.2,1-2.6,1.5c-0.5,0.6-0.5,1.1-0.5,1.9v6.3h-1.8V146.4z"/>
	<path class="st5" d="M99.1,149.4c0,0-0.1,0-0.1-0.2c0-0.1,0-0.1-0.1-0.2c-0.4-0.5-1.5-1.5-3-1.5c-1.2,0-2.3,0.6-2.3,1.5
		c0,0.4,0.2,0.9,1.1,1.3c1,0.5,2.8,0.7,4,1.4c1.3,0.7,1.6,1.7,1.6,2.5c0,1.7-1.6,3.4-4.6,3.4c-1.7,0-3.3-0.5-4.6-1.7l1-1.7
		c0.1,0.1,0.1,0.2,0.1,0.2c0,0.1,0,0.2,0.1,0.3c0.3,0.4,1.6,1.5,3.4,1.5c1.6,0,2.8-0.7,2.8-1.7c0-0.4-0.2-1-1.1-1.4
		c-0.8-0.4-2-0.7-2.9-1c-0.6-0.2-2.7-0.9-2.7-2.8c0-1.6,1.7-3.1,4.2-3.1c1.6,0,3.1,0.6,4.1,1.7L99.1,149.4z"/>
	<path class="st5" d="M108.1,143.2c0.1,0.2-0.1,0.4-0.1,0.6c-0.1,0.6-0.3,2.6-0.3,2.6h3.6v1.4h-3.6c-0.1,1.4-0.2,2.9-0.2,4.3
		c0,1.6,0.1,2,0.1,2.1c0.2,1.3,1,1.8,1.8,1.8c0.7,0,1.5-0.3,2.5-1l0.5,1.4c-0.9,0.7-2.2,1.2-3.5,1.2c-1.1,0-2-0.4-2.5-1.2
		c-0.6-0.9-0.6-2-0.6-3c0-1.9,0.1-3.7,0.2-5.6h-2.6l0-1.4h2.6l0.2-2.9L108.1,143.2z"/>
	<path class="st5" d="M119.8,146.2c1.7,0,3.1,0.6,3.8,1.8c0.5,0.8,0.5,1.7,0.5,2.6v6.8h-1.6v-1.2c-1.2,1-2.6,1.5-3.9,1.5
		c-2.3,0-3.7-1.5-3.7-3.1c0-1.2,0.8-2.5,2.5-3.1c1.4-0.5,3.1-0.5,4.7-0.5h0.4v-0.4c0-0.6,0-1.3-0.4-1.9c-0.3-0.5-1-1.1-2.3-1.1
		c-1,0-2.2,0.3-3.1,1.2l-0.8-1.1C116.9,146.7,118.3,146.2,119.8,146.2z M122.2,152.3c-1.1,0-2.6-0.1-3.6,0.2c-1.4,0.3-1.9,1.2-1.9,2
		c0,1,0.8,1.9,2.3,1.9c1.4,0,2.5-0.9,2.9-1.3c0.7-0.8,0.7-1.5,0.7-2.1v-0.7H122.2z"/>
	<path class="st5" d="M127.4,146.4h1.8v1.9c0.8-1.2,2.2-2.2,3.6-2.2c1.2,0,2.4,0.7,2.9,1.9c0.4,0.9,0.4,1.8,0.4,2.6v6.6h-1.7v-6.6
		c0-0.8,0-1.7-0.6-2.4c-0.4-0.5-0.9-0.7-1.5-0.7c-1.2,0-2.2,1-2.6,1.5c-0.5,0.6-0.5,1.1-0.5,1.9v6.3h-1.8V146.4z"/>
	<path class="st5" d="M147.5,149.7c-0.2-0.1-0.1-0.4-0.2-0.6c-0.1-0.1-1-1.4-2.8-1.4c-2,0-3.6,1.6-3.6,4.1c0,2.6,1.6,4.4,3.8,4.4
		c1.1,0,2.2-0.5,2.9-1.3l1,1.2c-1,1.1-2.5,1.7-4,1.7c-3.1,0-5.4-2.4-5.4-5.7c0-3.3,2.3-5.7,5.5-5.7c1.8,0,3.2,0.8,4.1,2L147.5,149.7
		z"/>
	<path class="st5" d="M160.3,150.1c0.1,0.6,0.1,1.3,0.1,2.1h-7.8c0.1,3.3,2.3,4.1,3.7,4.1c1.1,0,2.1-0.4,2.8-1.2l1,0.9
		c-0.9,1.1-2.4,1.7-3.9,1.7c-3,0-5.3-2-5.3-5.6c0-4,2.4-5.9,5-5.9C157.7,146.2,159.8,147.1,160.3,150.1z M158.7,150.8
		c0.2-1.8-1.1-3.3-2.8-3.3c-1.2,0-2.8,0.8-3.2,3.3H158.7z"/>
	<path class="st5" d="M171.1,149.4c0,0-0.1,0-0.1-0.2c0-0.1,0-0.1-0.1-0.2c-0.4-0.5-1.5-1.5-3-1.5c-1.2,0-2.3,0.6-2.3,1.5
		c0,0.4,0.2,0.9,1.1,1.3c1,0.5,2.8,0.7,4,1.4c1.3,0.7,1.6,1.7,1.6,2.5c0,1.7-1.6,3.4-4.6,3.4c-1.7,0-3.3-0.5-4.6-1.7l1-1.7
		c0.1,0.1,0.1,0.2,0.1,0.2c0,0.1,0,0.2,0.1,0.3c0.3,0.4,1.6,1.5,3.4,1.5c1.6,0,2.8-0.7,2.8-1.7c0-0.4-0.2-1-1.1-1.4
		c-0.8-0.4-2-0.7-2.9-1c-0.6-0.2-2.7-0.9-2.7-2.8c0-1.6,1.7-3.1,4.2-3.1c1.6,0,3.1,0.6,4.1,1.7L171.1,149.4z"/>
	<path class="st5" d="M179.5,150c-0.8,0-1.4-0.6-1.4-1.4c0-0.8,0.6-1.4,1.4-1.4c0.8,0,1.4,0.6,1.4,1.4
		C180.9,149.4,180.3,150,179.5,150z M179.5,157.7c-0.8,0-1.4-0.6-1.4-1.4c0-0.8,0.6-1.4,1.4-1.4c0.8,0,1.4,0.6,1.4,1.4
		C180.9,157.1,180.3,157.7,179.5,157.7z"/>
	<path class="st5" d="M206.7,142.4v9.4h1.9v1.5h-1.9v4.1h-1.7v-4.1h-6V152l6.4-9.6H206.7z M200.6,151.8h4.4v-6.7L200.6,151.8z"/>
</g>
<g class="st3">
	<path class="st5" d="M66.6,204h1.6l0,1.1c0.5-0.8,1.3-1.3,2.2-1.3c1,0,1.8,0.7,1.9,1.6c0.4-1,1.4-1.6,2.5-1.6
		c0.6,0,1.3,0.2,1.7,0.9c0.5,0.7,0.4,1.7,0.4,2.6v7.8h-1.6v-7.8c0-0.5,0.1-1.1-0.1-1.6c-0.2-0.4-0.5-0.6-0.9-0.6
		c-0.7,0-1.1,0.7-1.3,1c-0.4,0.7-0.5,1.2-0.5,1.7v7.2H71v-7.6c0-0.5,0-1-0.1-1.4c-0.2-0.6-0.6-0.8-1-0.8c-0.4,0-0.9,0.3-1.3,1
		c-0.3,0.6-0.3,1.1-0.3,1.6v7.3h-1.6V204z"/>
	<path class="st5" d="M88.3,207.7c0.1,0.6,0.1,1.3,0.1,2.1h-7.8c0.1,3.3,2.3,4.1,3.7,4.1c1.1,0,2.1-0.4,2.8-1.2l1,0.9
		c-0.9,1.1-2.4,1.7-3.9,1.7c-3,0-5.3-2-5.3-5.6c0-4,2.4-5.9,5-5.9C85.7,203.8,87.8,204.7,88.3,207.7z M86.7,208.4
		c0.2-1.8-1.1-3.3-2.8-3.3c-1.2,0-2.8,0.8-3.2,3.3H86.7z"/>
	<path class="st5" d="M90.6,204h1.6l0,1.1c0.5-0.8,1.3-1.3,2.2-1.3c1,0,1.8,0.7,1.9,1.6c0.4-1,1.4-1.6,2.5-1.6
		c0.6,0,1.3,0.2,1.7,0.9c0.5,0.7,0.4,1.7,0.4,2.6v7.8h-1.6v-7.8c0-0.5,0.1-1.1-0.1-1.6c-0.2-0.4-0.5-0.6-0.9-0.6
		c-0.7,0-1.1,0.7-1.3,1c-0.4,0.7-0.5,1.2-0.5,1.7v7.2H95v-7.6c0-0.5,0-1-0.1-1.4c-0.2-0.6-0.6-0.8-1-0.8c-0.4,0-0.9,0.3-1.3,1
		c-0.3,0.6-0.3,1.1-0.3,1.6v7.3h-1.6V204z"/>
	<path class="st5" d="M107.8,215.3c-2.8,0-5.1-2.4-5.1-5.7c0-3.4,2.4-5.8,5.2-5.8c2.5,0,4.9,2,4.9,5.8
		C112.8,213.2,110.4,215.3,107.8,215.3z M104.5,209.5c0,2.7,1.6,4.3,3.3,4.3c1.6,0,3.2-1.4,3.2-4.2c0-3-1.7-4.4-3.3-4.4
		C106.1,205.3,104.5,206.8,104.5,209.5z"/>
	<path class="st5" d="M117.9,204l-0.1,2.1c0.7-1.6,2.3-2.4,3.9-2.4c1.2,0,2.2,0.5,2.9,1.2l-0.8,1.7c-0.2-0.2-0.3-0.4-0.4-0.5
		c-0.3-0.4-0.9-0.8-1.8-0.8c-0.8,0-2.1,0.3-3.1,1.8c-0.7,1.2-0.8,1.9-0.8,2.6v5.3h-1.7v-11H117.9z"/>
	<path class="st5" d="M129,204c0,0.2-0.1,0.3-0.1,0.5c0,0.1,0,0.1,0,0.2l3.2,8.1l2.1-5.9c0.3-0.9,0.6-1.9,0.8-2.9h1.8
		c-0.3,1.1-0.7,2.1-1.1,3.2l-3.4,9.1c-0.2,0.6-0.5,1.2-0.9,1.7c-0.7,0.8-1.8,1.2-2.7,1.2c-0.9,0-1.7-0.3-2.4-0.9l0.9-1.6
		c0.1,0.1,0.1,0.3,0.2,0.4c0.1,0.1,0.5,0.7,1.3,0.7c0.5,0,1.1-0.2,1.5-0.7c0.3-0.4,0.6-0.8,0.8-1.3l0.4-0.8l-4.5-10.9H129z"/>
	<path class="st5" d="M143.5,207.6c-0.8,0-1.4-0.6-1.4-1.4c0-0.8,0.6-1.4,1.4-1.4c0.8,0,1.4,0.6,1.4,1.4
		C144.9,207,144.3,207.6,143.5,207.6z M143.5,215.3c-0.8,0-1.4-0.6-1.4-1.4c0-0.8,0.6-1.4,1.4-1.4c0.8,0,1.4,0.6,1.4,1.4
		C144.9,214.7,144.3,215.3,143.5,215.3z"/>
	<path class="st5" d="M168.9,215h-1.7v-12.9l-3,0.9l-0.4-0.9l3.9-2.1h1.2V215z"/>
	<path class="st5" d="M184.7,202.4l-1.2,1.2c-0.2-0.1-0.2-0.3-0.3-0.5c-0.5-1-1.5-1.8-2.9-1.8c-1.3,0-2.6,0.7-3.4,2.1
		c-0.6,1.1-0.8,2.4-0.8,3.8c0,1.6,0.2,3.7,1.4,5.1c0.8,0.9,1.9,1.3,2.8,1.3c0.9,0,1.9-0.3,2.7-0.9v-3.6h-2.7v-1.5h4.3v5.8
		c-1.4,1-3,1.6-4.4,1.6c-2.6,0-5.8-1.9-5.8-7.5c0-6.6,3.8-7.8,5.8-7.8C182.2,199.9,183.9,200.9,184.7,202.4z"/>
</g>
<g class="st3">
	<path class="st5" d="M75.1,264.6c0,0-0.1,0-0.1-0.2c0-0.1,0-0.1-0.1-0.2c-0.4-0.5-1.5-1.5-3-1.5c-1.2,0-2.3,0.6-2.3,1.5
		c0,0.4,0.2,0.9,1.1,1.3c1,0.5,2.8,0.7,4,1.4c1.3,0.7,1.6,1.7,1.6,2.5c0,1.7-1.6,3.4-4.6,3.4c-1.7,0-3.3-0.5-4.6-1.7l1-1.7
		c0.1,0.1,0.1,0.2,0.1,0.2c0,0.1,0,0.2,0.1,0.3c0.3,0.4,1.6,1.5,3.4,1.5c1.6,0,2.8-0.7,2.8-1.7c0-0.4-0.2-1-1.1-1.4
		c-0.8-0.4-2-0.7-2.9-1c-0.6-0.2-2.7-0.9-2.7-2.8c0-1.6,1.7-3.1,4.2-3.1c1.6,0,3.1,0.6,4.1,1.7L75.1,264.6z"/>
	<path class="st5" d="M88.3,265.3c0.1,0.6,0.1,1.3,0.1,2.1h-7.8c0.1,3.3,2.3,4.1,3.7,4.1c1.1,0,2.1-0.4,2.8-1.2l1,0.9
		c-0.9,1.1-2.4,1.7-3.9,1.7c-3,0-5.3-2-5.3-5.6c0-4,2.4-5.9,5-5.9C85.7,261.4,87.8,262.3,88.3,265.3z M86.7,266
		c0.2-1.8-1.1-3.3-2.8-3.3c-1.2,0-2.8,0.8-3.2,3.3H86.7z"/>
	<path class="st5" d="M93.9,261.6l-0.1,2.1c0.7-1.6,2.3-2.4,3.9-2.4c1.2,0,2.2,0.5,2.9,1.2l-0.8,1.7c-0.2-0.2-0.3-0.4-0.4-0.5
		c-0.3-0.4-0.9-0.8-1.8-0.8c-0.8,0-2.1,0.3-3.1,1.8c-0.7,1.2-0.8,1.9-0.8,2.6v5.3h-1.7v-11H93.9z"/>
	<path class="st5" d="M104.8,261.6c0,0.2-0.1,0.3-0.1,0.5c0,0.1,0,0.1,0,0.2l3.2,8l1.8-4.1c0.6-1.4,1.2-3,1.5-4.6h1.6
		c-0.4,1.7-1,3.3-1.6,4.8l-2.7,6.3H107l-4.4-11.1H104.8z"/>
	<path class="st5" d="M120.7,261.6v9.6h2.6v1.4h-7.1v-1.4h2.8V263h-2.7v-1.4H120.7z M121.1,258.1c0,0.7-0.6,1.2-1.2,1.2
		c-0.7,0-1.2-0.6-1.2-1.2s0.6-1.2,1.2-1.2C120.5,256.9,121.1,257.4,121.1,258.1z"/>
	<path class="st5" d="M135.5,264.9c-0.2-0.1-0.1-0.4-0.2-0.6c-0.1-0.1-1-1.4-2.8-1.4c-2,0-3.6,1.6-3.6,4.1c0,2.6,1.6,4.4,3.8,4.4
		c1.1,0,2.2-0.5,2.9-1.3l1,1.2c-1,1.1-2.5,1.7-4,1.7c-3.1,0-5.4-2.4-5.4-5.7c0-3.3,2.3-5.7,5.5-5.7c1.8,0,3.2,0.8,4.1,2L135.5,264.9
		z"/>
	<path class="st5" d="M148.3,265.3c0.1,0.6,0.1,1.3,0.1,2.1h-7.8c0.1,3.3,2.3,4.1,3.7,4.1c1.1,0,2.1-0.4,2.8-1.2l1,0.9
		c-0.9,1.1-2.4,1.7-3.9,1.7c-3,0-5.3-2-5.3-5.6c0-4,2.4-5.9,5-5.9C145.7,261.4,147.8,262.3,148.3,265.3z M146.7,266
		c0.2-1.8-1.1-3.3-2.8-3.3c-1.2,0-2.8,0.8-3.2,3.3H146.7z"/>
	<path class="st5" d="M159.1,264.6c0,0-0.1,0-0.1-0.2c0-0.1,0-0.1-0.1-0.2c-0.4-0.5-1.5-1.5-3-1.5c-1.2,0-2.3,0.6-2.3,1.5
		c0,0.4,0.2,0.9,1.1,1.3c1,0.5,2.8,0.7,4,1.4c1.3,0.7,1.6,1.7,1.6,2.5c0,1.7-1.6,3.4-4.6,3.4c-1.7,0-3.3-0.5-4.6-1.7l1-1.7
		c0.1,0.1,0.1,0.2,0.1,0.2c0,0.1,0,0.2,0.1,0.3c0.3,0.4,1.6,1.5,3.4,1.5c1.6,0,2.8-0.7,2.8-1.7c0-0.4-0.2-1-1.1-1.4
		c-0.8-0.4-2-0.7-2.9-1c-0.6-0.2-2.7-0.9-2.7-2.8c0-1.6,1.7-3.1,4.2-3.1c1.6,0,3.1,0.6,4.1,1.7L159.1,264.6z"/>
	<path class="st5" d="M167.5,265.2c-0.8,0-1.4-0.6-1.4-1.4c0-0.8,0.6-1.4,1.4-1.4c0.8,0,1.4,0.6,1.4,1.4
		C168.9,264.6,168.3,265.2,167.5,265.2z M167.5,272.9c-0.8,0-1.4-0.6-1.4-1.4c0-0.8,0.6-1.4,1.4-1.4c0.8,0,1.4,0.6,1.4,1.4
		C168.9,272.3,168.3,272.9,167.5,272.9z"/>
</g>
<g class="st3">
	<path class="st5" d="M76.1,293.1v1.6h-8.6v-1.6H76.1z"/>
	<path class="st5" d="M99.5,293.7c-0.2-0.1-0.1-0.4-0.2-0.6c-0.1-0.1-1-1.4-2.8-1.4c-2,0-3.6,1.6-3.6,4.1c0,2.6,1.6,4.4,3.8,4.4
		c1.1,0,2.2-0.5,2.9-1.3l1,1.2c-1,1.1-2.5,1.7-4,1.7c-3.1,0-5.4-2.4-5.4-5.7c0-3.3,2.3-5.7,5.5-5.7c1.8,0,3.2,0.8,4.1,2L99.5,293.7z
		"/>
	<path class="st5" d="M107.8,290.2c1.7,0,3.1,0.6,3.8,1.8c0.5,0.8,0.5,1.7,0.5,2.6v6.8h-1.6v-1.2c-1.2,1-2.6,1.5-3.9,1.5
		c-2.3,0-3.7-1.5-3.7-3.1c0-1.2,0.8-2.5,2.5-3.1c1.4-0.5,3.1-0.5,4.7-0.5h0.4v-0.4c0-0.6,0-1.3-0.4-1.9c-0.3-0.5-1-1.1-2.3-1.1
		c-1,0-2.2,0.3-3.1,1.2l-0.8-1.1C104.9,290.7,106.3,290.2,107.8,290.2z M110.2,296.3c-1.1,0-2.6-0.1-3.6,0.2c-1.4,0.3-1.9,1.2-1.9,2
		c0,1,0.8,1.9,2.3,1.9c1.4,0,2.5-0.9,2.9-1.3c0.7-0.8,0.7-1.5,0.7-2.1v-0.7H110.2z"/>
	<path class="st5" d="M123.5,293.7c-0.2-0.1-0.1-0.4-0.2-0.6c-0.1-0.1-1-1.4-2.8-1.4c-2,0-3.6,1.6-3.6,4.1c0,2.6,1.6,4.4,3.8,4.4
		c1.1,0,2.2-0.5,2.9-1.3l1,1.2c-1,1.1-2.5,1.7-4,1.7c-3.1,0-5.4-2.4-5.4-5.7c0-3.3,2.3-5.7,5.5-5.7c1.8,0,3.2,0.8,4.1,2L123.5,293.7
		z"/>
	<path class="st5" d="M127.4,285.5h2c0,0,0,0,0,0.1c0,0.1-0.1,0.2-0.2,0.3c-0.1,0.1-0.1,0.1-0.1,0.2v6.4c0.8-1.2,2.2-2.2,3.6-2.2
		c1.2,0,2.4,0.7,2.9,1.9c0.4,0.9,0.4,1.8,0.4,2.6v6.6h-1.7v-6.6c0-0.8,0-1.7-0.6-2.4c-0.4-0.5-0.9-0.7-1.5-0.7c-1.2,0-2.2,1-2.6,1.5
		c-0.5,0.6-0.5,1.1-0.5,1.9v6.3h-1.8V285.5z"/>
	<path class="st5" d="M148.3,294.1c0.1,0.6,0.1,1.3,0.1,2.1h-7.8c0.1,3.3,2.3,4.1,3.7,4.1c1.1,0,2.1-0.4,2.8-1.2l1,0.9
		c-0.9,1.1-2.4,1.7-3.9,1.7c-3,0-5.3-2-5.3-5.6c0-4,2.4-5.9,5-5.9C145.7,290.2,147.8,291.1,148.3,294.1z M146.7,294.8
		c0.2-1.8-1.1-3.3-2.8-3.3c-1.2,0-2.8,0.8-3.2,3.3H146.7z"/>
	<path class="st5" d="M76.1,321.9v1.6h-8.6v-1.6H76.1z"/>
	<path class="st5" d="M98.6,314.2h1.8c0,0.2-0.1,0.3-0.1,0.4c-0.1,0.1-0.1,0.2-0.1,0.3l0,14.3c0,0.3,0,0.7,0.1,1h-1.7
		c-0.1-0.3-0.1-0.5-0.1-0.8v-1c-0.7,1.2-2,2-3.4,2c-2.1,0-4.4-1.8-4.4-5.8c0-4.2,2.5-5.7,4.6-5.7c1.5,0,2.7,0.8,3.2,1.9V314.2z
		 M92.5,324.3c0,3.6,1.8,4.6,3.1,4.6c1.1,0,2.3-0.8,2.7-2.1c0.2-0.6,0.2-1.2,0.2-2c0-1.2,0-1.8-0.2-2.3c-0.4-1.6-1.9-2.1-2.8-2.1
		C94.2,320.4,92.5,321.2,92.5,324.3z"/>
	<path class="st5" d="M107.8,319c1.7,0,3.1,0.6,3.8,1.8c0.5,0.8,0.5,1.7,0.5,2.6v6.8h-1.6V329c-1.2,1-2.6,1.5-3.9,1.5
		c-2.3,0-3.7-1.5-3.7-3.1c0-1.2,0.8-2.5,2.5-3.1c1.4-0.5,3.1-0.5,4.7-0.5h0.4v-0.4c0-0.6,0-1.3-0.4-1.9c-0.3-0.5-1-1.1-2.3-1.1
		c-1,0-2.2,0.3-3.1,1.2l-0.8-1.1C104.9,319.5,106.3,319,107.8,319z M110.2,325.1c-1.1,0-2.6-0.1-3.6,0.2c-1.4,0.3-1.9,1.2-1.9,2
		c0,1,0.8,1.9,2.3,1.9c1.4,0,2.5-0.9,2.9-1.3c0.7-0.8,0.7-1.5,0.7-2.1v-0.7H110.2z"/>
	<path class="st5" d="M120.1,316c0.1,0.2-0.1,0.4-0.1,0.6c-0.1,0.6-0.3,2.6-0.3,2.6h3.6v1.4h-3.6c-0.1,1.4-0.2,2.9-0.2,4.3
		c0,1.6,0.1,2,0.1,2.1c0.2,1.3,1,1.8,1.8,1.8c0.7,0,1.5-0.3,2.5-1l0.5,1.4c-0.9,0.7-2.2,1.2-3.5,1.2c-1.1,0-2-0.4-2.5-1.2
		c-0.6-0.9-0.6-2-0.6-3c0-1.9,0.1-3.7,0.2-5.6h-2.6l0-1.4h2.6l0.2-2.9L120.1,316z"/>
	<path class="st5" d="M131.8,319c1.7,0,3.1,0.6,3.8,1.8c0.5,0.8,0.5,1.7,0.5,2.6v6.8h-1.6V329c-1.2,1-2.6,1.5-3.9,1.5
		c-2.3,0-3.7-1.5-3.7-3.1c0-1.2,0.8-2.5,2.5-3.1c1.4-0.5,3.1-0.5,4.7-0.5h0.4v-0.4c0-0.6,0-1.3-0.4-1.9c-0.3-0.5-1-1.1-2.3-1.1
		c-1,0-2.2,0.3-3.1,1.2l-0.8-1.1C128.9,319.5,130.3,319,131.8,319z M134.2,325.1c-1.1,0-2.6-0.1-3.6,0.2c-1.4,0.3-1.9,1.2-1.9,2
		c0,1,0.8,1.9,2.3,1.9c1.4,0,2.5-0.9,2.9-1.3c0.7-0.8,0.7-1.5,0.7-2.1v-0.7H134.2z"/>
	<path class="st5" d="M141.2,314.2c0,0.1-0.1,0.2-0.1,0.3c-0.1,0.1-0.1,0.1-0.1,0.3v6.2c0.7-1.2,2-1.9,3.4-1.9
		c2.2,0,4.4,1.8,4.4,5.6c0,4-2.3,5.9-4.6,5.9c-1.3,0-2.5-0.7-3.2-1.7l-0.6,1.5h-1.1v-16H141.2z M141.2,322.1
		c-0.2,0.6-0.3,1.3-0.3,2.3c0,0.9,0,1.6,0.1,2.2c0.3,2.1,1.9,2.4,2.7,2.4c1.1,0,3.2-0.6,3.2-4c0-3.9-2.2-4.5-3.2-4.5
		C142.6,320.5,141.6,321.1,141.2,322.1z"/>
	<path class="st5" d="M155.8,319c1.7,0,3.1,0.6,3.8,1.8c0.5,0.8,0.5,1.7,0.5,2.6v6.8h-1.6V329c-1.2,1-2.6,1.5-3.9,1.5
		c-2.3,0-3.7-1.5-3.7-3.1c0-1.2,0.8-2.5,2.5-3.1c1.4-0.5,3.1-0.5,4.7-0.5h0.4v-0.4c0-0.6,0-1.3-0.4-1.9c-0.3-0.5-1-1.1-2.3-1.1
		c-1,0-2.2,0.3-3.1,1.2l-0.8-1.1C152.9,319.5,154.3,319,155.8,319z M158.2,325.1c-1.1,0-2.6-0.1-3.6,0.2c-1.4,0.3-1.9,1.2-1.9,2
		c0,1,0.8,1.9,2.3,1.9c1.4,0,2.5-0.9,2.9-1.3c0.7-0.8,0.7-1.5,0.7-2.1v-0.7H158.2z"/>
	<path class="st5" d="M171.1,322.2c0,0-0.1,0-0.1-0.2c0-0.1,0-0.1-0.1-0.2c-0.4-0.5-1.5-1.5-3-1.5c-1.2,0-2.3,0.6-2.3,1.5
		c0,0.4,0.2,0.9,1.1,1.3c1,0.5,2.8,0.7,4,1.4c1.3,0.7,1.6,1.7,1.6,2.5c0,1.7-1.6,3.4-4.6,3.4c-1.7,0-3.3-0.5-4.6-1.7l1-1.7
		c0.1,0.1,0.1,0.2,0.1,0.2c0,0.1,0,0.2,0.1,0.3c0.3,0.4,1.6,1.5,3.4,1.5c1.6,0,2.8-0.7,2.8-1.7c0-0.4-0.2-1-1.1-1.4
		c-0.8-0.4-2-0.7-2.9-1c-0.6-0.2-2.7-0.9-2.7-2.8c0-1.6,1.7-3.1,4.2-3.1c1.6,0,3.1,0.6,4.1,1.7L171.1,322.2z"/>
	<path class="st5" d="M184.3,322.9c0.1,0.6,0.1,1.3,0.1,2.1h-7.8c0.1,3.3,2.3,4.1,3.7,4.1c1.1,0,2.1-0.4,2.8-1.2l1,0.9
		c-0.9,1.1-2.4,1.7-3.9,1.7c-3,0-5.3-2-5.3-5.6c0-4,2.4-5.9,5-5.9C181.7,319,183.8,319.9,184.3,322.9z M182.7,323.6
		c0.2-1.8-1.1-3.3-2.8-3.3c-1.2,0-2.8,0.8-3.2,3.3H182.7z"/>
</g>
<ellipse class="st5" cx="17.1" cy="20.7" rx="9.3" ry="9.3"/>
<ellipse class="st5" cx="43.3" cy="20.7" rx="9.3" ry="9.3"/>
<ellipse class="st5" cx="69.6" cy="20.7" rx="9.3" ry="9.3"/>
</svg>
