<?xml version="1.0" encoding="utf-8"?>
<!-- Generator: Adobe Illustrator 21.0.0, SVG Export Plug-In . SVG Version: 6.00 Build 0)  -->
<svg version="1.1" id="Layer_1" xmlns="http://www.w3.org/2000/svg" xmlns:xlink="http://www.w3.org/1999/xlink" x="0px" y="0px"
	 viewBox="0 0 543 368.5" style="enable-background:new 0 0 543 368.5;" xml:space="preserve">
<style type="text/css">
	.st0{fill:#BFC1C3;}
	.st1{fill:#313131;enable-background:new    ;}
	.st2{fill:#FFFFFF;}
	.st3{fill:#FFFFFF;stroke:#A7A7A8;stroke-miterlimit:10;}
	.st4{fill:#009347;stroke:#FFFFFF;stroke-miterlimit:10;}
	.st5{fill:#D2D2D2;}
	.st6{fill:#0A0A0A;}
	.st7{fill:none;}
	.st8{font-family:'GDSTransportWebsite';}
	.st9{font-size:28.0276px;}
	.st10{fill:#C2F297;}
	.st11{font-family:'Inconsolata';}
	.st12{font-size:32px;}
	.st13{fill:none;stroke:#A7A7A8;stroke-width:4;stroke-miterlimit:10;}
</style>
<g>
	<path class="st0" d="M483.3,230.9c0,2.5-2.6,4.7-5.7,4.7H6.6c-3.1,0-5.7-2.1-5.7-4.7V7c0-2.5,2.6-4.7,5.7-4.7h471
		c3.1,0,5.7,2.1,5.7,4.7V230.9z"/>
</g>
<rect x="6.2" y="35.3" class="st1" width="472.7" height="194.9"/>
<circle class="st2" cx="15.4" cy="18.3" r="8.3"/>
<circle class="st2" cx="39.8" cy="18.3" r="8.3"/>
<circle class="st2" cx="64.2" cy="18.3" r="8.3"/>
<g>
	<path class="st0" d="M542,362.4c0,3.1-2.6,5.7-5.7,5.7h-471c-3.1,0-5.7-2.6-5.7-5.7V89.7c0-3.1,2.6-5.7,5.7-5.7h471
		c3.1,0,5.7,2.6,5.7,5.7V362.4z"/>
</g>
<rect x="115" y="114.3" class="st3" width="421.9" height="48.4"/>
<rect x="64.2" y="168.3" class="st3" width="472.7" height="193.7"/>
<rect x="77.9" y="299.4" class="st4" width="202.8" height="49.1"/>
<rect x="78.9" y="270.7" class="st5" width="285.3" height="15.2"/>
<rect x="78.9" y="247.2" class="st5" width="361.3" height="15.2"/>
<rect x="78.9" y="223.7" class="st5" width="316.1" height="15.2"/>
<rect x="64.4" y="168.7" class="st6" width="472" height="38.9"/>
<rect x="77.2" y="127.8" class="st7" width="432.5" height="29.8"/>
<text transform="matrix(1 0 0 1 125.7194 147.4381)" class="st8 st9">https://my-app.cloudapps.digital</text>
<circle class="st2" cx="74.1" cy="100" r="8.3"/>
<circle class="st2" cx="98.5" cy="100" r="8.3"/>
<circle class="st2" cx="122.9" cy="100" r="8.3"/>
<g>
	<path class="st2" d="M85.2,183.8c0.8,0.3,1.7-0.1,2-0.8c0.3-0.8-0.1-1.7-0.8-2c-0.8-0.3-1.7,0.1-2,0.8
		C84,182.6,84.4,183.5,85.2,183.8 M81.7,185.8c0.8,0.3,1.7-0.1,2-0.8c0.3-0.8-0.1-1.7-0.8-2c-0.8-0.3-1.7,0.1-2,0.8
		C80.6,184.6,81,185.6,81.7,185.8 M80.7,189.7c0.8,0.3,1.7-0.1,2-0.8c0.3-0.8-0.1-1.7-0.8-2c-0.8-0.3-1.7,0.1-2,0.8
		C79.6,188.5,80,189.4,80.7,189.7 M89,185c0.8,0.3,1.7-0.1,2-0.8c0.3-0.8-0.1-1.7-0.8-2c-0.8-0.3-1.7,0.1-2,0.8
		C87.9,183.8,88.3,184.7,89,185 M102.9,183.8c-0.8,0.3-1.7-0.1-2-0.8c-0.3-0.8,0.1-1.7,0.8-2c0.8-0.3,1.7,0.1,2,0.8
		C104.1,182.6,103.7,183.5,102.9,183.8 M106.4,185.8c-0.8,0.3-1.7-0.1-2-0.8c-0.3-0.8,0-1.7,0.8-2s1.7,0.1,2,0.8
		C107.6,184.6,107.2,185.6,106.4,185.8 M107.4,189.7c-0.8,0.3-1.7-0.1-2-0.8c-0.3-0.8,0.1-1.7,0.8-2c0.8-0.3,1.7,0.1,2,0.8
		C108.5,188.5,108.2,189.4,107.4,189.7 M99.1,185c-0.8,0.3-1.7-0.1-2-0.8c-0.3-0.8,0.1-1.7,0.8-2c0.8-0.3,1.7,0.1,2,0.8
		C100.3,183.8,99.9,184.7,99.1,185 M94.9,181.1l1.9,1v-2.8l-1.9,0.6l-0.2-0.2l0.8-2.4h-2.8l0.8,2.4l-0.2,0.2l-2-0.6v2.8l1.9-1
		l0.2,0.2l-1.1,3.4c-0.1,0.2-0.1,0.3-0.1,0.5c0,0.9,0.7,1.6,1.5,1.8h0.6c0.9-0.1,1.6-0.9,1.6-1.8c0-0.2,0-0.3-0.1-0.5l-1.1-3.4
		C94.7,181.3,94.8,181.2,94.9,181.1 M94.1,197.4c3.6,0,7.1,0.2,10.2,0.7c0.9-3.7,2-5.8,3.1-7.3l-2.1-0.7c0.2,1,0.2,1.6,0,2.2
		c-0.3-0.3-0.6-0.9-0.9-1.9l-1,3.4c0.6-0.4,1.1-0.7,1.6-0.7c-1,2.1-2.1,2.6-2.9,2.4c-0.9-0.2-1.4-1-1.2-1.7c0.2-1,1.3-1.3,1.7-0.1
		c0.9-1.9-0.6-2.5-1.7-1.9c1.6-1.6,1.7-2.9,0.5-4.6c-1.7,1.3-1.8,2.7-1,4.5c-1-1.2-2.6-0.5-2,1.3c0.8-1.2,1.7-0.4,1.6,0.6
		c-0.1,0.9-1.4,1.7-2.9,1.6c-2.2-0.2-2.4-1.7-2.4-3c0.5-0.1,1.5,0.4,2.4,1.6l0.3-3.5c-0.9,0.9-1.7,1.2-2.7,1.2
		c0.3-1,1.7-2.5,1.7-2.5h-4.3c0,0,1.4,1.6,1.7,2.5c-0.9-0.1-1.7-0.2-2.7-1.2l0.3,3.5c0.9-1.2,1.8-1.7,2.4-1.6
		c-0.1,1.3-0.2,2.8-2.4,3c-1.6,0.1-2.8-0.6-2.9-1.6c-0.2-1.1,0.8-1.8,1.6-0.6c0.6-1.9-1-2.5-2-1.3c0.8-1.8,0.8-3.2-1-4.5
		c-1.3,1.7-1.1,3.1,0.5,4.6c-1-0.6-2.6,0.1-1.7,1.9c0.5-1.2,1.5-0.9,1.7,0.1c0.2,0.7-0.3,1.6-1.2,1.7c-0.8,0.1-2-0.4-2.9-2.4
		c0.5,0,1,0.3,1.6,0.7l-1-3.4c-0.2,0.9-0.6,1.6-0.9,1.9c-0.2-0.7-0.2-1.2,0-2.2l-2.1,0.8c1.1,1.5,2.1,3.6,3.1,7.3
		C87,197.7,90.4,197.4,94.1,197.4"/>
</g>
<rect x="15.3" y="45.6" class="st7" width="406" height="90"/>
<text transform="matrix(1 0 0 1 15.3335 66.848)" class="st10 st11 st12">$ cf push my-app</text>
<line class="st13" x1="70.7" y1="137.9" x2="85.3" y2="123.2"/>
<line class="st13" x1="70.7" y1="135" x2="85.3" y2="149.6"/>
<line class="st13" x1="74.7" y1="136.5" x2="105.4" y2="136.7"/>
</svg>
